%TF.GenerationSoftware,KiCad,Pcbnew,9.0.4*%
%TF.CreationDate,2025-08-31T12:14:26+02:00*%
%TF.ProjectId,tank_PCB,74616e6b-5f50-4434-922e-6b696361645f,rev?*%
%TF.SameCoordinates,Original*%
%TF.FileFunction,Copper,L2,Bot*%
%TF.FilePolarity,Positive*%
%FSLAX46Y46*%
G04 Gerber Fmt 4.6, Leading zero omitted, Abs format (unit mm)*
G04 Created by KiCad (PCBNEW 9.0.4) date 2025-08-31 12:14:26*
%MOMM*%
%LPD*%
G01*
G04 APERTURE LIST*
%TA.AperFunction,ComponentPad*%
%ADD10C,1.500000*%
%TD*%
%TA.AperFunction,ComponentPad*%
%ADD11R,1.500000X1.500000*%
%TD*%
%TA.AperFunction,ComponentPad*%
%ADD12R,1.700000X1.700000*%
%TD*%
%TA.AperFunction,ComponentPad*%
%ADD13O,1.700000X1.700000*%
%TD*%
%TA.AperFunction,ViaPad*%
%ADD14C,0.600000*%
%TD*%
%TA.AperFunction,Conductor*%
%ADD15C,0.200000*%
%TD*%
%TA.AperFunction,Conductor*%
%ADD16C,0.500000*%
%TD*%
G04 APERTURE END LIST*
D10*
%TO.P,J2,1,1*%
%TO.N,GND*%
X103400000Y-99050000D03*
%TO.P,J2,2,2*%
%TO.N,Net-(D2-A)*%
X98400000Y-102550000D03*
%TD*%
D11*
%TO.P,J3,1,1*%
%TO.N,Net-(J3-Pad1)*%
X98400000Y-146700000D03*
D10*
%TO.P,J3,2,2*%
%TO.N,+20V*%
X103400000Y-143200000D03*
%TO.P,J3,3,3*%
%TO.N,Net-(J3-Pad3)*%
X98400000Y-139700000D03*
%TO.P,J3,4,4*%
%TO.N,+20V*%
X103400000Y-136200000D03*
%TO.P,J3,5,5*%
%TO.N,Net-(J3-Pad5)*%
X98400000Y-132700000D03*
%TO.P,J3,6,6*%
%TO.N,+20V*%
X103400000Y-129200000D03*
%TO.P,J3,7,7*%
%TO.N,Net-(J3-Pad7)*%
X98400000Y-125700000D03*
%TO.P,J3,8,8*%
%TO.N,+20V*%
X103400000Y-122200000D03*
%TD*%
D12*
%TO.P,J1,1,Pin_1*%
%TO.N,+3.3V*%
X63000000Y-112260000D03*
D13*
%TO.P,J1,2,Pin_2*%
%TO.N,GND*%
X63000000Y-114800000D03*
%TO.P,J1,3,Pin_3*%
%TO.N,TFT_CS*%
X63000000Y-117340000D03*
%TO.P,J1,4,Pin_4*%
%TO.N,TFT_RST*%
X63000000Y-119880000D03*
%TO.P,J1,5,Pin_5*%
%TO.N,TFT_DC*%
X63000000Y-122420000D03*
%TO.P,J1,6,Pin_6*%
%TO.N,MOSI*%
X63000000Y-124960000D03*
%TO.P,J1,7,Pin_7*%
%TO.N,SCK*%
X63000000Y-127500000D03*
%TO.P,J1,8,Pin_8*%
%TO.N,BCK_LIGHT*%
X63000000Y-130040000D03*
%TO.P,J1,9,Pin_9*%
%TO.N,MISO*%
X63000000Y-132580000D03*
%TO.P,J1,10,Pin_10*%
%TO.N,SCK*%
X63000000Y-135120000D03*
%TO.P,J1,11,Pin_11*%
%TO.N,TOUCH_CS*%
X63000000Y-137660000D03*
%TO.P,J1,12,Pin_12*%
%TO.N,MOSI*%
X63000000Y-140200000D03*
%TO.P,J1,13,Pin_13*%
%TO.N,MISO*%
X63000000Y-142740000D03*
%TO.P,J1,14,Pin_14*%
%TO.N,TOUCH_IRQ*%
X63000000Y-145280000D03*
%TD*%
D14*
%TO.N,GND*%
X97000000Y-108000000D03*
X74800000Y-171600000D03*
X69000000Y-129000000D03*
X85000000Y-133000000D03*
X82000000Y-171600000D03*
X69000000Y-112000000D03*
X90000000Y-166000000D03*
X81000000Y-121000000D03*
X67000000Y-166000000D03*
X79000000Y-108000000D03*
X66000000Y-96000000D03*
X84000000Y-145000000D03*
X77200000Y-166000000D03*
X79000000Y-133000000D03*
%TO.N,SCL*%
X77800000Y-138300000D03*
X82000000Y-125700000D03*
%TO.N,+3.3V*%
X78800000Y-122600000D03*
X88000000Y-117800000D03*
X72600000Y-122600000D03*
%TO.N,SCK*%
X67400000Y-108400000D03*
X85025000Y-102550000D03*
%TO.N,BCK_LIGHT*%
X65700000Y-130050000D03*
X84400000Y-120000000D03*
%TO.N,MOSI*%
X86000000Y-101300000D03*
X66800000Y-105800000D03*
%TO.N,MISO*%
X65800000Y-142740000D03*
X65800000Y-132580000D03*
X85600000Y-120000000D03*
%TO.N,TOUCH_IRQ*%
X87200000Y-120000000D03*
X68400000Y-125800000D03*
%TO.N,VBUS*%
X76000000Y-170400000D03*
X80800000Y-170400000D03*
%TD*%
D15*
%TO.N,SCL*%
X78600000Y-125700000D02*
X77800000Y-126500000D01*
X82000000Y-125700000D02*
X78600000Y-125700000D01*
X77800000Y-126500000D02*
X77800000Y-138300000D01*
D16*
%TO.N,+3.3V*%
X66600000Y-122200000D02*
X67000000Y-122600000D01*
X83200000Y-117800000D02*
X88000000Y-117800000D01*
X78800000Y-122600000D02*
X82600000Y-122600000D01*
X66600000Y-113000000D02*
X66600000Y-122200000D01*
X63000000Y-112260000D02*
X65860000Y-112260000D01*
X83000000Y-122200000D02*
X83000000Y-118000000D01*
X65860000Y-112260000D02*
X66600000Y-113000000D01*
X82600000Y-122600000D02*
X83000000Y-122200000D01*
X83000000Y-118000000D02*
X83200000Y-117800000D01*
X67000000Y-122600000D02*
X72600000Y-122600000D01*
X72600000Y-122600000D02*
X78800000Y-122600000D01*
D15*
%TO.N,SCK*%
X73250000Y-102550000D02*
X67400000Y-108400000D01*
X85025000Y-102550000D02*
X73250000Y-102550000D01*
%TO.N,BCK_LIGHT*%
X84400000Y-120050000D02*
X84325000Y-120125000D01*
X84000000Y-124200000D02*
X66200000Y-124200000D01*
X84400000Y-120000000D02*
X84400000Y-123800000D01*
X66200000Y-124200000D02*
X65700000Y-124700000D01*
X84400000Y-123800000D02*
X84000000Y-124200000D01*
X84400000Y-120000000D02*
X84400000Y-120050000D01*
X65700000Y-124700000D02*
X65700000Y-130050000D01*
%TO.N,MOSI*%
X71300000Y-101300000D02*
X66800000Y-105800000D01*
X86000000Y-101300000D02*
X71300000Y-101300000D01*
%TO.N,MISO*%
X66675000Y-131705000D02*
X65800000Y-132580000D01*
X66675000Y-125125000D02*
X66675000Y-131705000D01*
X85600000Y-120000000D02*
X85600000Y-124400000D01*
X65800000Y-142740000D02*
X65800000Y-132580000D01*
X85400000Y-124600000D02*
X67200000Y-124600000D01*
X67200000Y-124600000D02*
X66675000Y-125125000D01*
X85600000Y-124400000D02*
X85400000Y-124600000D01*
%TO.N,TOUCH_IRQ*%
X69200000Y-125000000D02*
X68400000Y-125800000D01*
X87000000Y-125000000D02*
X69200000Y-125000000D01*
X87200000Y-124800000D02*
X87000000Y-125000000D01*
X87200000Y-120000000D02*
X87200000Y-124800000D01*
D16*
%TO.N,VBUS*%
X76000000Y-170400000D02*
X80800000Y-170400000D01*
%TD*%
%TA.AperFunction,Conductor*%
%TO.N,GND*%
G36*
X108442539Y-90520185D02*
G01*
X108488294Y-90572989D01*
X108499500Y-90624500D01*
X108499500Y-180375500D01*
X108479815Y-180442539D01*
X108427011Y-180488294D01*
X108375500Y-180499500D01*
X60624500Y-180499500D01*
X60557461Y-180479815D01*
X60511706Y-180427011D01*
X60500500Y-180375500D01*
X60500500Y-177881902D01*
X61499500Y-177881902D01*
X61499500Y-178118097D01*
X61536446Y-178351368D01*
X61609433Y-178575996D01*
X61716657Y-178786433D01*
X61855483Y-178977510D01*
X62022490Y-179144517D01*
X62213567Y-179283343D01*
X62312991Y-179334002D01*
X62424003Y-179390566D01*
X62424005Y-179390566D01*
X62424008Y-179390568D01*
X62544412Y-179429689D01*
X62648631Y-179463553D01*
X62881903Y-179500500D01*
X62881908Y-179500500D01*
X63118097Y-179500500D01*
X63351368Y-179463553D01*
X63575992Y-179390568D01*
X63786433Y-179283343D01*
X63977510Y-179144517D01*
X64144517Y-178977510D01*
X64283343Y-178786433D01*
X64390568Y-178575992D01*
X64463553Y-178351368D01*
X64500500Y-178118097D01*
X64500500Y-177881902D01*
X104499500Y-177881902D01*
X104499500Y-178118097D01*
X104536446Y-178351368D01*
X104609433Y-178575996D01*
X104716657Y-178786433D01*
X104855483Y-178977510D01*
X105022490Y-179144517D01*
X105213567Y-179283343D01*
X105312991Y-179334002D01*
X105424003Y-179390566D01*
X105424005Y-179390566D01*
X105424008Y-179390568D01*
X105544412Y-179429689D01*
X105648631Y-179463553D01*
X105881903Y-179500500D01*
X105881908Y-179500500D01*
X106118097Y-179500500D01*
X106351368Y-179463553D01*
X106575992Y-179390568D01*
X106786433Y-179283343D01*
X106977510Y-179144517D01*
X107144517Y-178977510D01*
X107283343Y-178786433D01*
X107390568Y-178575992D01*
X107463553Y-178351368D01*
X107500500Y-178118097D01*
X107500500Y-177881902D01*
X107463553Y-177648631D01*
X107390566Y-177424003D01*
X107283342Y-177213566D01*
X107144517Y-177022490D01*
X106977510Y-176855483D01*
X106786433Y-176716657D01*
X106575996Y-176609433D01*
X106351368Y-176536446D01*
X106118097Y-176499500D01*
X106118092Y-176499500D01*
X105881908Y-176499500D01*
X105881903Y-176499500D01*
X105648631Y-176536446D01*
X105424003Y-176609433D01*
X105213566Y-176716657D01*
X105104550Y-176795862D01*
X105022490Y-176855483D01*
X105022488Y-176855485D01*
X105022487Y-176855485D01*
X104855485Y-177022487D01*
X104855485Y-177022488D01*
X104855483Y-177022490D01*
X104795862Y-177104550D01*
X104716657Y-177213566D01*
X104609433Y-177424003D01*
X104536446Y-177648631D01*
X104499500Y-177881902D01*
X64500500Y-177881902D01*
X64463553Y-177648631D01*
X64390566Y-177424003D01*
X64283342Y-177213566D01*
X64144517Y-177022490D01*
X63977510Y-176855483D01*
X63786433Y-176716657D01*
X63575996Y-176609433D01*
X63351368Y-176536446D01*
X63118097Y-176499500D01*
X63118092Y-176499500D01*
X62881908Y-176499500D01*
X62881903Y-176499500D01*
X62648631Y-176536446D01*
X62424003Y-176609433D01*
X62213566Y-176716657D01*
X62104550Y-176795862D01*
X62022490Y-176855483D01*
X62022488Y-176855485D01*
X62022487Y-176855485D01*
X61855485Y-177022487D01*
X61855485Y-177022488D01*
X61855483Y-177022490D01*
X61795862Y-177104550D01*
X61716657Y-177213566D01*
X61609433Y-177424003D01*
X61536446Y-177648631D01*
X61499500Y-177881902D01*
X60500500Y-177881902D01*
X60500500Y-174494234D01*
X74934500Y-174494234D01*
X74934500Y-174645765D01*
X74973719Y-174792136D01*
X75011602Y-174857750D01*
X75049485Y-174923365D01*
X75156635Y-175030515D01*
X75287865Y-175106281D01*
X75434234Y-175145500D01*
X75434236Y-175145500D01*
X75585764Y-175145500D01*
X75585766Y-175145500D01*
X75732135Y-175106281D01*
X75863365Y-175030515D01*
X75970515Y-174923365D01*
X76046281Y-174792135D01*
X76085500Y-174645766D01*
X76085500Y-174494234D01*
X80714500Y-174494234D01*
X80714500Y-174645765D01*
X80753719Y-174792136D01*
X80791602Y-174857750D01*
X80829485Y-174923365D01*
X80936635Y-175030515D01*
X81067865Y-175106281D01*
X81214234Y-175145500D01*
X81214236Y-175145500D01*
X81365764Y-175145500D01*
X81365766Y-175145500D01*
X81512135Y-175106281D01*
X81643365Y-175030515D01*
X81750515Y-174923365D01*
X81826281Y-174792135D01*
X81865500Y-174645766D01*
X81865500Y-174494234D01*
X81826281Y-174347865D01*
X81750515Y-174216635D01*
X81643365Y-174109485D01*
X81577750Y-174071602D01*
X81512136Y-174033719D01*
X81438950Y-174014109D01*
X81365766Y-173994500D01*
X81214234Y-173994500D01*
X81067863Y-174033719D01*
X80936635Y-174109485D01*
X80936632Y-174109487D01*
X80829487Y-174216632D01*
X80829485Y-174216635D01*
X80753719Y-174347863D01*
X80714500Y-174494234D01*
X76085500Y-174494234D01*
X76046281Y-174347865D01*
X75970515Y-174216635D01*
X75863365Y-174109485D01*
X75797750Y-174071602D01*
X75732136Y-174033719D01*
X75658950Y-174014109D01*
X75585766Y-173994500D01*
X75434234Y-173994500D01*
X75287863Y-174033719D01*
X75156635Y-174109485D01*
X75156632Y-174109487D01*
X75049487Y-174216632D01*
X75049485Y-174216635D01*
X74973719Y-174347863D01*
X74934500Y-174494234D01*
X60500500Y-174494234D01*
X60500500Y-170321153D01*
X75199500Y-170321153D01*
X75199500Y-170478846D01*
X75230261Y-170633489D01*
X75230264Y-170633501D01*
X75290602Y-170779172D01*
X75290609Y-170779185D01*
X75378210Y-170910288D01*
X75378213Y-170910292D01*
X75489707Y-171021786D01*
X75489711Y-171021789D01*
X75620814Y-171109390D01*
X75620827Y-171109397D01*
X75720060Y-171150500D01*
X75766503Y-171169737D01*
X75921153Y-171200499D01*
X75921156Y-171200500D01*
X75921158Y-171200500D01*
X76078844Y-171200500D01*
X76078845Y-171200499D01*
X76155152Y-171185320D01*
X76233488Y-171169739D01*
X76233489Y-171169738D01*
X76233497Y-171169737D01*
X76257155Y-171159937D01*
X76304604Y-171150500D01*
X80495396Y-171150500D01*
X80542844Y-171159937D01*
X80566503Y-171169737D01*
X80566508Y-171169738D01*
X80566511Y-171169739D01*
X80721153Y-171200499D01*
X80721156Y-171200500D01*
X80721158Y-171200500D01*
X80878844Y-171200500D01*
X80878845Y-171200499D01*
X81033497Y-171169737D01*
X81179179Y-171109394D01*
X81310289Y-171021789D01*
X81421789Y-170910289D01*
X81509394Y-170779179D01*
X81569737Y-170633497D01*
X81600500Y-170478842D01*
X81600500Y-170321158D01*
X81600500Y-170321155D01*
X81600499Y-170321153D01*
X81569738Y-170166510D01*
X81569737Y-170166503D01*
X81569735Y-170166498D01*
X81509397Y-170020827D01*
X81509390Y-170020814D01*
X81421789Y-169889711D01*
X81421786Y-169889707D01*
X81310292Y-169778213D01*
X81310288Y-169778210D01*
X81179185Y-169690609D01*
X81179172Y-169690602D01*
X81033501Y-169630264D01*
X81033489Y-169630261D01*
X80878845Y-169599500D01*
X80878842Y-169599500D01*
X80721158Y-169599500D01*
X80721155Y-169599500D01*
X80566511Y-169630260D01*
X80566506Y-169630262D01*
X80566504Y-169630262D01*
X80566503Y-169630263D01*
X80542844Y-169640062D01*
X80495396Y-169649500D01*
X76304604Y-169649500D01*
X76257155Y-169640062D01*
X76233497Y-169630263D01*
X76233493Y-169630262D01*
X76233488Y-169630260D01*
X76078845Y-169599500D01*
X76078842Y-169599500D01*
X75921158Y-169599500D01*
X75921155Y-169599500D01*
X75766510Y-169630261D01*
X75766498Y-169630264D01*
X75620827Y-169690602D01*
X75620814Y-169690609D01*
X75489711Y-169778210D01*
X75489707Y-169778213D01*
X75378213Y-169889707D01*
X75378210Y-169889711D01*
X75290609Y-170020814D01*
X75290602Y-170020827D01*
X75230264Y-170166498D01*
X75230261Y-170166510D01*
X75199500Y-170321153D01*
X60500500Y-170321153D01*
X60500500Y-111362135D01*
X61649500Y-111362135D01*
X61649500Y-113157870D01*
X61649501Y-113157876D01*
X61655908Y-113217483D01*
X61706202Y-113352328D01*
X61706206Y-113352335D01*
X61792452Y-113467544D01*
X61792455Y-113467547D01*
X61907664Y-113553793D01*
X61907671Y-113553797D01*
X61907674Y-113553798D01*
X62039598Y-113603002D01*
X62095531Y-113644873D01*
X62119949Y-113710337D01*
X62105098Y-113778610D01*
X62083947Y-113806865D01*
X61970271Y-113920541D01*
X61845379Y-114092442D01*
X61748904Y-114281782D01*
X61683242Y-114483870D01*
X61683242Y-114483873D01*
X61672769Y-114550000D01*
X62566988Y-114550000D01*
X62534075Y-114607007D01*
X62500000Y-114734174D01*
X62500000Y-114865826D01*
X62534075Y-114992993D01*
X62566988Y-115050000D01*
X61672769Y-115050000D01*
X61683242Y-115116126D01*
X61683242Y-115116129D01*
X61748904Y-115318217D01*
X61845379Y-115507557D01*
X61970272Y-115679459D01*
X61970276Y-115679464D01*
X62120535Y-115829723D01*
X62120540Y-115829727D01*
X62292444Y-115954622D01*
X62301495Y-115959234D01*
X62352292Y-116007208D01*
X62369087Y-116075029D01*
X62346550Y-116141164D01*
X62301499Y-116180202D01*
X62292182Y-116184949D01*
X62120213Y-116309890D01*
X61969890Y-116460213D01*
X61844951Y-116632179D01*
X61748444Y-116821585D01*
X61682753Y-117023760D01*
X61649500Y-117233713D01*
X61649500Y-117446286D01*
X61668541Y-117566510D01*
X61682754Y-117656243D01*
X61723318Y-117781087D01*
X61748444Y-117858414D01*
X61844951Y-118047820D01*
X61969890Y-118219786D01*
X62120213Y-118370109D01*
X62292182Y-118495050D01*
X62300946Y-118499516D01*
X62351742Y-118547491D01*
X62368536Y-118615312D01*
X62345998Y-118681447D01*
X62300946Y-118720484D01*
X62292182Y-118724949D01*
X62120213Y-118849890D01*
X61969890Y-119000213D01*
X61844951Y-119172179D01*
X61748444Y-119361585D01*
X61682753Y-119563760D01*
X61650643Y-119766498D01*
X61649500Y-119773713D01*
X61649500Y-119986287D01*
X61682754Y-120196243D01*
X61748270Y-120397881D01*
X61748444Y-120398414D01*
X61844951Y-120587820D01*
X61969890Y-120759786D01*
X62120213Y-120910109D01*
X62292182Y-121035050D01*
X62300946Y-121039516D01*
X62351742Y-121087491D01*
X62368536Y-121155312D01*
X62345998Y-121221447D01*
X62300946Y-121260484D01*
X62292182Y-121264949D01*
X62120213Y-121389890D01*
X61969890Y-121540213D01*
X61844951Y-121712179D01*
X61748444Y-121901585D01*
X61682753Y-122103760D01*
X61649500Y-122313713D01*
X61649500Y-122526286D01*
X61673850Y-122680029D01*
X61682754Y-122736243D01*
X61721472Y-122855405D01*
X61748444Y-122938414D01*
X61844951Y-123127820D01*
X61969890Y-123299786D01*
X62120213Y-123450109D01*
X62292182Y-123575050D01*
X62300946Y-123579516D01*
X62351742Y-123627491D01*
X62368536Y-123695312D01*
X62345998Y-123761447D01*
X62300946Y-123800484D01*
X62292182Y-123804949D01*
X62120213Y-123929890D01*
X61969890Y-124080213D01*
X61844951Y-124252179D01*
X61748444Y-124441585D01*
X61682753Y-124643760D01*
X61649500Y-124853713D01*
X61649500Y-125066286D01*
X61682238Y-125272989D01*
X61682754Y-125276243D01*
X61729732Y-125420827D01*
X61748444Y-125478414D01*
X61844951Y-125667820D01*
X61969890Y-125839786D01*
X62120213Y-125990109D01*
X62292182Y-126115050D01*
X62300946Y-126119516D01*
X62351742Y-126167491D01*
X62368536Y-126235312D01*
X62345998Y-126301447D01*
X62300946Y-126340484D01*
X62292182Y-126344949D01*
X62120213Y-126469890D01*
X61969890Y-126620213D01*
X61844951Y-126792179D01*
X61748444Y-126981585D01*
X61682753Y-127183760D01*
X61649500Y-127393713D01*
X61649500Y-127606287D01*
X61682754Y-127816243D01*
X61736056Y-127980290D01*
X61748444Y-128018414D01*
X61844951Y-128207820D01*
X61969890Y-128379786D01*
X62120213Y-128530109D01*
X62292182Y-128655050D01*
X62300946Y-128659516D01*
X62351742Y-128707491D01*
X62368536Y-128775312D01*
X62345998Y-128841447D01*
X62300946Y-128880484D01*
X62292182Y-128884949D01*
X62120213Y-129009890D01*
X61969890Y-129160213D01*
X61844951Y-129332179D01*
X61748444Y-129521585D01*
X61682753Y-129723760D01*
X61668065Y-129816498D01*
X61649500Y-129933713D01*
X61649500Y-130146287D01*
X61682754Y-130356243D01*
X61706454Y-130429185D01*
X61748444Y-130558414D01*
X61844951Y-130747820D01*
X61969890Y-130919786D01*
X62120213Y-131070109D01*
X62292182Y-131195050D01*
X62300946Y-131199516D01*
X62351742Y-131247491D01*
X62368536Y-131315312D01*
X62345998Y-131381447D01*
X62300946Y-131420484D01*
X62292182Y-131424949D01*
X62120213Y-131549890D01*
X61969890Y-131700213D01*
X61844951Y-131872179D01*
X61748444Y-132061585D01*
X61682753Y-132263760D01*
X61649500Y-132473713D01*
X61649500Y-132686286D01*
X61667260Y-132798422D01*
X61682754Y-132896243D01*
X61746595Y-133092726D01*
X61748444Y-133098414D01*
X61844951Y-133287820D01*
X61969890Y-133459786D01*
X62120213Y-133610109D01*
X62292182Y-133735050D01*
X62300946Y-133739516D01*
X62351742Y-133787491D01*
X62368536Y-133855312D01*
X62345998Y-133921447D01*
X62300946Y-133960484D01*
X62292182Y-133964949D01*
X62120213Y-134089890D01*
X61969890Y-134240213D01*
X61844951Y-134412179D01*
X61748444Y-134601585D01*
X61682753Y-134803760D01*
X61649500Y-135013713D01*
X61649500Y-135226287D01*
X61652650Y-135246174D01*
X61682753Y-135436239D01*
X61748444Y-135638414D01*
X61844951Y-135827820D01*
X61969890Y-135999786D01*
X62120213Y-136150109D01*
X62292182Y-136275050D01*
X62300946Y-136279516D01*
X62351742Y-136327491D01*
X62368536Y-136395312D01*
X62345998Y-136461447D01*
X62300946Y-136500484D01*
X62292182Y-136504949D01*
X62120213Y-136629890D01*
X61969890Y-136780213D01*
X61844951Y-136952179D01*
X61748444Y-137141585D01*
X61682753Y-137343760D01*
X61680358Y-137358882D01*
X61649500Y-137553713D01*
X61649500Y-137766287D01*
X61682754Y-137976243D01*
X61712081Y-138066503D01*
X61748444Y-138178414D01*
X61844951Y-138367820D01*
X61969890Y-138539786D01*
X62120213Y-138690109D01*
X62292182Y-138815050D01*
X62300946Y-138819516D01*
X62351742Y-138867491D01*
X62368536Y-138935312D01*
X62345998Y-139001447D01*
X62300946Y-139040484D01*
X62292182Y-139044949D01*
X62120213Y-139169890D01*
X61969890Y-139320213D01*
X61844951Y-139492179D01*
X61748444Y-139681585D01*
X61682753Y-139883760D01*
X61665479Y-139992826D01*
X61649500Y-140093713D01*
X61649500Y-140306287D01*
X61682754Y-140516243D01*
X61727458Y-140653828D01*
X61748444Y-140718414D01*
X61844951Y-140907820D01*
X61969890Y-141079786D01*
X62120213Y-141230109D01*
X62292182Y-141355050D01*
X62300946Y-141359516D01*
X62351742Y-141407491D01*
X62368536Y-141475312D01*
X62345998Y-141541447D01*
X62300946Y-141580484D01*
X62292182Y-141584949D01*
X62120213Y-141709890D01*
X61969890Y-141860213D01*
X61844951Y-142032179D01*
X61748444Y-142221585D01*
X61748443Y-142221587D01*
X61748443Y-142221588D01*
X61715598Y-142322672D01*
X61682753Y-142423760D01*
X61649500Y-142633713D01*
X61649500Y-142846286D01*
X61681647Y-143049259D01*
X61682754Y-143056243D01*
X61745803Y-143250288D01*
X61748444Y-143258414D01*
X61844951Y-143447820D01*
X61969890Y-143619786D01*
X62120213Y-143770109D01*
X62292182Y-143895050D01*
X62300946Y-143899516D01*
X62351742Y-143947491D01*
X62368536Y-144015312D01*
X62345998Y-144081447D01*
X62300946Y-144120484D01*
X62292182Y-144124949D01*
X62120213Y-144249890D01*
X61969890Y-144400213D01*
X61844951Y-144572179D01*
X61748444Y-144761585D01*
X61682753Y-144963760D01*
X61649500Y-145173713D01*
X61649500Y-145386286D01*
X61682153Y-145592452D01*
X61682754Y-145596243D01*
X61718959Y-145707671D01*
X61748444Y-145798414D01*
X61844951Y-145987820D01*
X61969890Y-146159786D01*
X62120213Y-146310109D01*
X62292179Y-146435048D01*
X62292181Y-146435049D01*
X62292184Y-146435051D01*
X62481588Y-146531557D01*
X62683757Y-146597246D01*
X62893713Y-146630500D01*
X62893714Y-146630500D01*
X63106286Y-146630500D01*
X63106287Y-146630500D01*
X63316243Y-146597246D01*
X63518412Y-146531557D01*
X63707816Y-146435051D01*
X63729789Y-146419086D01*
X63879786Y-146310109D01*
X63879788Y-146310106D01*
X63879792Y-146310104D01*
X64030104Y-146159792D01*
X64030106Y-146159788D01*
X64030109Y-146159786D01*
X64084899Y-146084371D01*
X64155051Y-145987816D01*
X64198707Y-145902135D01*
X97149500Y-145902135D01*
X97149500Y-147497870D01*
X97149501Y-147497876D01*
X97155908Y-147557483D01*
X97206202Y-147692328D01*
X97206206Y-147692335D01*
X97292452Y-147807544D01*
X97292455Y-147807547D01*
X97407664Y-147893793D01*
X97407671Y-147893797D01*
X97542517Y-147944091D01*
X97542516Y-147944091D01*
X97549444Y-147944835D01*
X97602127Y-147950500D01*
X99197872Y-147950499D01*
X99257483Y-147944091D01*
X99392331Y-147893796D01*
X99507546Y-147807546D01*
X99593796Y-147692331D01*
X99644091Y-147557483D01*
X99650500Y-147497873D01*
X99650499Y-145902128D01*
X99644091Y-145842517D01*
X99593796Y-145707669D01*
X99593795Y-145707668D01*
X99593793Y-145707664D01*
X99507547Y-145592455D01*
X99507544Y-145592452D01*
X99392335Y-145506206D01*
X99392328Y-145506202D01*
X99257482Y-145455908D01*
X99257483Y-145455908D01*
X99197883Y-145449501D01*
X99197881Y-145449500D01*
X99197873Y-145449500D01*
X99197864Y-145449500D01*
X97602129Y-145449500D01*
X97602123Y-145449501D01*
X97542516Y-145455908D01*
X97407671Y-145506202D01*
X97407664Y-145506206D01*
X97292455Y-145592452D01*
X97292452Y-145592455D01*
X97206206Y-145707664D01*
X97206202Y-145707671D01*
X97155908Y-145842517D01*
X97149501Y-145902116D01*
X97149501Y-145902123D01*
X97149500Y-145902135D01*
X64198707Y-145902135D01*
X64209591Y-145880773D01*
X64229088Y-145842511D01*
X64229089Y-145842509D01*
X64251554Y-145798417D01*
X64251557Y-145798412D01*
X64317246Y-145596243D01*
X64350500Y-145386287D01*
X64350500Y-145173713D01*
X64317246Y-144963757D01*
X64251557Y-144761588D01*
X64155051Y-144572184D01*
X64155049Y-144572181D01*
X64155048Y-144572179D01*
X64030109Y-144400213D01*
X63879786Y-144249890D01*
X63707820Y-144124951D01*
X63707115Y-144124591D01*
X63699054Y-144120485D01*
X63648259Y-144072512D01*
X63631463Y-144004692D01*
X63653999Y-143938556D01*
X63699054Y-143899515D01*
X63707816Y-143895051D01*
X63729789Y-143879086D01*
X63879786Y-143770109D01*
X63879788Y-143770106D01*
X63879792Y-143770104D01*
X64030104Y-143619792D01*
X64030106Y-143619788D01*
X64030109Y-143619786D01*
X64153902Y-143449397D01*
X64155051Y-143447816D01*
X64251557Y-143258412D01*
X64317246Y-143056243D01*
X64350500Y-142846287D01*
X64350500Y-142633713D01*
X64317246Y-142423757D01*
X64251557Y-142221588D01*
X64155051Y-142032184D01*
X64155049Y-142032181D01*
X64155048Y-142032179D01*
X64030109Y-141860213D01*
X63879786Y-141709890D01*
X63707820Y-141584951D01*
X63707115Y-141584591D01*
X63699054Y-141580485D01*
X63648259Y-141532512D01*
X63631463Y-141464692D01*
X63653999Y-141398556D01*
X63699054Y-141359515D01*
X63707816Y-141355051D01*
X63729789Y-141339086D01*
X63879786Y-141230109D01*
X63879788Y-141230106D01*
X63879792Y-141230104D01*
X64030104Y-141079792D01*
X64030106Y-141079788D01*
X64030109Y-141079786D01*
X64155048Y-140907820D01*
X64155047Y-140907820D01*
X64155051Y-140907816D01*
X64251557Y-140718412D01*
X64317246Y-140516243D01*
X64350500Y-140306287D01*
X64350500Y-140093713D01*
X64317246Y-139883757D01*
X64251557Y-139681588D01*
X64155051Y-139492184D01*
X64155049Y-139492181D01*
X64155048Y-139492179D01*
X64030109Y-139320213D01*
X63879786Y-139169890D01*
X63707820Y-139044951D01*
X63707115Y-139044591D01*
X63699054Y-139040485D01*
X63648259Y-138992512D01*
X63631463Y-138924692D01*
X63653999Y-138858556D01*
X63699054Y-138819515D01*
X63707816Y-138815051D01*
X63802618Y-138746174D01*
X63879786Y-138690109D01*
X63879788Y-138690106D01*
X63879792Y-138690104D01*
X64030104Y-138539792D01*
X64030106Y-138539788D01*
X64030109Y-138539786D01*
X64155048Y-138367820D01*
X64155047Y-138367820D01*
X64155051Y-138367816D01*
X64251557Y-138178412D01*
X64317246Y-137976243D01*
X64350500Y-137766287D01*
X64350500Y-137553713D01*
X64317246Y-137343757D01*
X64251557Y-137141588D01*
X64155051Y-136952184D01*
X64155049Y-136952181D01*
X64155048Y-136952179D01*
X64030109Y-136780213D01*
X63879786Y-136629890D01*
X63707820Y-136504951D01*
X63707115Y-136504591D01*
X63699054Y-136500485D01*
X63648259Y-136452512D01*
X63631463Y-136384692D01*
X63653999Y-136318556D01*
X63699054Y-136279515D01*
X63707816Y-136275051D01*
X63729789Y-136259086D01*
X63879786Y-136150109D01*
X63879788Y-136150106D01*
X63879792Y-136150104D01*
X64030104Y-135999792D01*
X64030106Y-135999788D01*
X64030109Y-135999786D01*
X64155048Y-135827820D01*
X64155047Y-135827820D01*
X64155051Y-135827816D01*
X64251557Y-135638412D01*
X64317246Y-135436243D01*
X64350500Y-135226287D01*
X64350500Y-135013713D01*
X64317246Y-134803757D01*
X64251557Y-134601588D01*
X64155051Y-134412184D01*
X64155049Y-134412181D01*
X64155048Y-134412179D01*
X64030109Y-134240213D01*
X63879786Y-134089890D01*
X63707820Y-133964951D01*
X63707115Y-133964591D01*
X63699054Y-133960485D01*
X63648259Y-133912512D01*
X63631463Y-133844692D01*
X63653999Y-133778556D01*
X63699054Y-133739515D01*
X63707816Y-133735051D01*
X63819615Y-133653825D01*
X63879786Y-133610109D01*
X63879788Y-133610106D01*
X63879792Y-133610104D01*
X64030104Y-133459792D01*
X64030106Y-133459788D01*
X64030109Y-133459786D01*
X64155048Y-133287820D01*
X64155047Y-133287820D01*
X64155051Y-133287816D01*
X64251557Y-133098412D01*
X64317246Y-132896243D01*
X64350500Y-132686287D01*
X64350500Y-132473713D01*
X64317246Y-132263757D01*
X64251557Y-132061588D01*
X64155051Y-131872184D01*
X64155049Y-131872181D01*
X64155048Y-131872179D01*
X64030109Y-131700213D01*
X63879786Y-131549890D01*
X63707820Y-131424951D01*
X63707115Y-131424591D01*
X63699054Y-131420485D01*
X63648259Y-131372512D01*
X63631463Y-131304692D01*
X63653999Y-131238556D01*
X63699054Y-131199515D01*
X63707816Y-131195051D01*
X63729789Y-131179086D01*
X63879786Y-131070109D01*
X63879788Y-131070106D01*
X63879792Y-131070104D01*
X64030104Y-130919792D01*
X64030106Y-130919788D01*
X64030109Y-130919786D01*
X64155048Y-130747820D01*
X64155047Y-130747820D01*
X64155051Y-130747816D01*
X64251557Y-130558412D01*
X64317246Y-130356243D01*
X64350500Y-130146287D01*
X64350500Y-129933713D01*
X64317246Y-129723757D01*
X64251557Y-129521588D01*
X64155051Y-129332184D01*
X64155049Y-129332181D01*
X64155048Y-129332179D01*
X64030109Y-129160213D01*
X63879786Y-129009890D01*
X63707820Y-128884951D01*
X63707115Y-128884591D01*
X63699054Y-128880485D01*
X63648259Y-128832512D01*
X63631463Y-128764692D01*
X63653999Y-128698556D01*
X63699054Y-128659515D01*
X63707816Y-128655051D01*
X63859847Y-128544595D01*
X63879786Y-128530109D01*
X63879788Y-128530106D01*
X63879792Y-128530104D01*
X64030104Y-128379792D01*
X64030106Y-128379788D01*
X64030109Y-128379786D01*
X64155048Y-128207820D01*
X64155047Y-128207820D01*
X64155051Y-128207816D01*
X64251557Y-128018412D01*
X64317246Y-127816243D01*
X64350500Y-127606287D01*
X64350500Y-127393713D01*
X64317246Y-127183757D01*
X64251557Y-126981588D01*
X64155051Y-126792184D01*
X64155049Y-126792181D01*
X64155048Y-126792179D01*
X64030109Y-126620213D01*
X63879786Y-126469890D01*
X63707820Y-126344951D01*
X63707115Y-126344591D01*
X63699054Y-126340485D01*
X63648259Y-126292512D01*
X63631463Y-126224692D01*
X63653999Y-126158556D01*
X63699054Y-126119515D01*
X63707816Y-126115051D01*
X63820061Y-126033501D01*
X63879786Y-125990109D01*
X63879788Y-125990106D01*
X63879792Y-125990104D01*
X64030104Y-125839792D01*
X64030106Y-125839788D01*
X64030109Y-125839786D01*
X64155048Y-125667820D01*
X64155047Y-125667820D01*
X64155051Y-125667816D01*
X64251557Y-125478412D01*
X64317246Y-125276243D01*
X64350500Y-125066287D01*
X64350500Y-124853713D01*
X64317246Y-124643757D01*
X64251557Y-124441588D01*
X64155051Y-124252184D01*
X64155049Y-124252181D01*
X64155048Y-124252179D01*
X64030109Y-124080213D01*
X63879786Y-123929890D01*
X63707820Y-123804951D01*
X63707115Y-123804591D01*
X63699054Y-123800485D01*
X63648259Y-123752512D01*
X63631463Y-123684692D01*
X63653999Y-123618556D01*
X63699054Y-123579515D01*
X63707816Y-123575051D01*
X63773938Y-123527011D01*
X63879786Y-123450109D01*
X63879788Y-123450106D01*
X63879792Y-123450104D01*
X64030104Y-123299792D01*
X64030106Y-123299788D01*
X64030109Y-123299786D01*
X64155048Y-123127820D01*
X64155047Y-123127820D01*
X64155051Y-123127816D01*
X64251557Y-122938412D01*
X64317246Y-122736243D01*
X64350500Y-122526287D01*
X64350500Y-122313713D01*
X64317246Y-122103757D01*
X64251557Y-121901588D01*
X64155051Y-121712184D01*
X64155049Y-121712181D01*
X64155048Y-121712179D01*
X64030109Y-121540213D01*
X63879786Y-121389890D01*
X63707820Y-121264951D01*
X63707115Y-121264591D01*
X63699054Y-121260485D01*
X63648259Y-121212512D01*
X63631463Y-121144692D01*
X63653999Y-121078556D01*
X63699054Y-121039515D01*
X63707816Y-121035051D01*
X63729789Y-121019086D01*
X63879786Y-120910109D01*
X63879788Y-120910106D01*
X63879792Y-120910104D01*
X64030104Y-120759792D01*
X64030106Y-120759788D01*
X64030109Y-120759786D01*
X64155048Y-120587820D01*
X64155047Y-120587820D01*
X64155051Y-120587816D01*
X64251557Y-120398412D01*
X64317246Y-120196243D01*
X64350500Y-119986287D01*
X64350500Y-119773713D01*
X64317246Y-119563757D01*
X64251557Y-119361588D01*
X64155051Y-119172184D01*
X64155049Y-119172181D01*
X64155048Y-119172179D01*
X64030109Y-119000213D01*
X63879786Y-118849890D01*
X63707820Y-118724951D01*
X63707115Y-118724591D01*
X63699054Y-118720485D01*
X63648259Y-118672512D01*
X63631463Y-118604692D01*
X63653999Y-118538556D01*
X63699054Y-118499515D01*
X63707816Y-118495051D01*
X63729789Y-118479086D01*
X63879786Y-118370109D01*
X63879788Y-118370106D01*
X63879792Y-118370104D01*
X64030104Y-118219792D01*
X64030106Y-118219788D01*
X64030109Y-118219786D01*
X64155048Y-118047820D01*
X64155047Y-118047820D01*
X64155051Y-118047816D01*
X64251557Y-117858412D01*
X64317246Y-117656243D01*
X64350500Y-117446287D01*
X64350500Y-117233713D01*
X64317246Y-117023757D01*
X64251557Y-116821588D01*
X64155051Y-116632184D01*
X64155049Y-116632181D01*
X64155048Y-116632179D01*
X64030109Y-116460213D01*
X63879786Y-116309890D01*
X63707817Y-116184949D01*
X63698504Y-116180204D01*
X63647707Y-116132230D01*
X63630912Y-116064409D01*
X63653449Y-115998274D01*
X63698507Y-115959232D01*
X63707558Y-115954620D01*
X63879459Y-115829727D01*
X63879464Y-115829723D01*
X64029723Y-115679464D01*
X64029727Y-115679459D01*
X64154620Y-115507557D01*
X64251095Y-115318217D01*
X64316757Y-115116129D01*
X64316757Y-115116126D01*
X64327231Y-115050000D01*
X63433012Y-115050000D01*
X63465925Y-114992993D01*
X63500000Y-114865826D01*
X63500000Y-114734174D01*
X63465925Y-114607007D01*
X63433012Y-114550000D01*
X64327231Y-114550000D01*
X64316757Y-114483873D01*
X64316757Y-114483870D01*
X64251095Y-114281782D01*
X64154620Y-114092442D01*
X64029727Y-113920540D01*
X64029723Y-113920535D01*
X63916053Y-113806865D01*
X63882568Y-113745542D01*
X63887552Y-113675850D01*
X63929424Y-113619917D01*
X63960400Y-113603002D01*
X64092331Y-113553796D01*
X64207546Y-113467546D01*
X64293796Y-113352331D01*
X64344091Y-113217483D01*
X64350500Y-113157873D01*
X64350500Y-113134500D01*
X64370185Y-113067461D01*
X64422989Y-113021706D01*
X64474500Y-113010500D01*
X65497770Y-113010500D01*
X65564809Y-113030185D01*
X65585451Y-113046819D01*
X65813181Y-113274549D01*
X65846666Y-113335872D01*
X65849500Y-113362230D01*
X65849500Y-122273918D01*
X65849500Y-122273920D01*
X65849499Y-122273920D01*
X65878340Y-122418907D01*
X65878343Y-122418917D01*
X65934914Y-122555492D01*
X65967812Y-122604727D01*
X65967813Y-122604730D01*
X66017046Y-122678414D01*
X66017052Y-122678421D01*
X66353279Y-123014646D01*
X66417048Y-123078415D01*
X66417049Y-123078416D01*
X66492458Y-123153825D01*
X66521585Y-123182952D01*
X66644498Y-123265080D01*
X66644511Y-123265087D01*
X66781082Y-123321656D01*
X66781087Y-123321658D01*
X66781091Y-123321658D01*
X66781092Y-123321659D01*
X66926079Y-123350500D01*
X66926082Y-123350500D01*
X72295396Y-123350500D01*
X72303565Y-123352124D01*
X72308637Y-123351209D01*
X72342829Y-123359931D01*
X72345254Y-123360935D01*
X72399659Y-123404768D01*
X72421731Y-123471060D01*
X72404460Y-123538761D01*
X72353328Y-123586378D01*
X72297811Y-123599500D01*
X66286670Y-123599500D01*
X66286654Y-123599499D01*
X66279058Y-123599499D01*
X66120943Y-123599499D01*
X66049823Y-123618556D01*
X65968214Y-123640423D01*
X65968209Y-123640426D01*
X65831290Y-123719475D01*
X65831282Y-123719481D01*
X65324217Y-124226546D01*
X65324214Y-124226548D01*
X65324215Y-124226549D01*
X65219478Y-124331286D01*
X65169361Y-124418094D01*
X65169359Y-124418096D01*
X65140425Y-124468209D01*
X65140424Y-124468210D01*
X65140423Y-124468215D01*
X65099499Y-124620943D01*
X65099499Y-124620945D01*
X65099499Y-124789046D01*
X65099500Y-124789059D01*
X65099500Y-129470234D01*
X65079815Y-129537273D01*
X65078602Y-129539125D01*
X64990609Y-129670814D01*
X64990602Y-129670827D01*
X64930264Y-129816498D01*
X64930261Y-129816510D01*
X64899500Y-129971153D01*
X64899500Y-130128846D01*
X64930261Y-130283489D01*
X64930264Y-130283501D01*
X64990602Y-130429172D01*
X64990609Y-130429185D01*
X65078210Y-130560288D01*
X65078213Y-130560292D01*
X65189707Y-130671786D01*
X65189711Y-130671789D01*
X65320814Y-130759390D01*
X65320827Y-130759397D01*
X65466498Y-130819735D01*
X65466503Y-130819737D01*
X65621153Y-130850499D01*
X65621156Y-130850500D01*
X65621158Y-130850500D01*
X65778844Y-130850500D01*
X65926308Y-130821167D01*
X65995900Y-130827394D01*
X66051077Y-130870257D01*
X66074322Y-130936146D01*
X66074500Y-130942784D01*
X66074500Y-131404903D01*
X66054815Y-131471942D01*
X66038181Y-131492584D01*
X65785339Y-131745425D01*
X65724016Y-131778910D01*
X65721850Y-131779361D01*
X65566508Y-131810261D01*
X65566498Y-131810264D01*
X65420827Y-131870602D01*
X65420814Y-131870609D01*
X65289711Y-131958210D01*
X65289707Y-131958213D01*
X65178213Y-132069707D01*
X65178210Y-132069711D01*
X65090609Y-132200814D01*
X65090602Y-132200827D01*
X65030264Y-132346498D01*
X65030261Y-132346510D01*
X64999500Y-132501153D01*
X64999500Y-132658846D01*
X65030261Y-132813489D01*
X65030264Y-132813501D01*
X65090602Y-132959172D01*
X65090609Y-132959185D01*
X65178602Y-133090874D01*
X65199480Y-133157551D01*
X65199500Y-133159765D01*
X65199500Y-142160234D01*
X65179815Y-142227273D01*
X65178602Y-142229125D01*
X65090609Y-142360814D01*
X65090602Y-142360827D01*
X65030264Y-142506498D01*
X65030261Y-142506510D01*
X64999500Y-142661153D01*
X64999500Y-142818846D01*
X65030261Y-142973489D01*
X65030264Y-142973501D01*
X65090602Y-143119172D01*
X65090609Y-143119185D01*
X65178210Y-143250288D01*
X65178213Y-143250292D01*
X65289707Y-143361786D01*
X65289711Y-143361789D01*
X65420814Y-143449390D01*
X65420827Y-143449397D01*
X65566498Y-143509735D01*
X65566503Y-143509737D01*
X65721153Y-143540499D01*
X65721156Y-143540500D01*
X65721158Y-143540500D01*
X65878844Y-143540500D01*
X65878845Y-143540499D01*
X66033497Y-143509737D01*
X66179179Y-143449394D01*
X66310289Y-143361789D01*
X66421789Y-143250289D01*
X66509394Y-143119179D01*
X66509397Y-143119172D01*
X66516685Y-143101577D01*
X102149500Y-143101577D01*
X102149500Y-143298422D01*
X102180290Y-143492826D01*
X102241117Y-143680029D01*
X102330476Y-143855405D01*
X102446172Y-144014646D01*
X102585354Y-144153828D01*
X102744595Y-144269524D01*
X102827455Y-144311743D01*
X102919970Y-144358882D01*
X102919972Y-144358882D01*
X102919975Y-144358884D01*
X103020317Y-144391487D01*
X103107173Y-144419709D01*
X103301578Y-144450500D01*
X103301583Y-144450500D01*
X103498422Y-144450500D01*
X103692826Y-144419709D01*
X103880025Y-144358884D01*
X104055405Y-144269524D01*
X104214646Y-144153828D01*
X104353828Y-144014646D01*
X104469524Y-143855405D01*
X104558884Y-143680025D01*
X104619709Y-143492826D01*
X104650500Y-143298422D01*
X104650500Y-143101577D01*
X104619709Y-142907173D01*
X104558882Y-142719970D01*
X104469523Y-142544594D01*
X104441848Y-142506503D01*
X104353828Y-142385354D01*
X104214646Y-142246172D01*
X104055405Y-142130476D01*
X103880029Y-142041117D01*
X103692826Y-141980290D01*
X103498422Y-141949500D01*
X103498417Y-141949500D01*
X103301583Y-141949500D01*
X103301578Y-141949500D01*
X103107173Y-141980290D01*
X102919970Y-142041117D01*
X102744594Y-142130476D01*
X102653741Y-142196485D01*
X102585354Y-142246172D01*
X102585352Y-142246174D01*
X102585351Y-142246174D01*
X102446174Y-142385351D01*
X102446174Y-142385352D01*
X102446172Y-142385354D01*
X102418268Y-142423760D01*
X102330476Y-142544594D01*
X102241117Y-142719970D01*
X102180290Y-142907173D01*
X102149500Y-143101577D01*
X66516685Y-143101577D01*
X66538356Y-143049259D01*
X66569735Y-142973501D01*
X66569737Y-142973497D01*
X66600500Y-142818842D01*
X66600500Y-142661158D01*
X66600500Y-142661155D01*
X66600499Y-142661153D01*
X66569738Y-142506510D01*
X66569737Y-142506503D01*
X66519555Y-142385351D01*
X66509397Y-142360827D01*
X66509390Y-142360814D01*
X66421398Y-142229125D01*
X66400520Y-142162447D01*
X66400500Y-142160234D01*
X66400500Y-139601577D01*
X97149500Y-139601577D01*
X97149500Y-139798422D01*
X97180290Y-139992826D01*
X97241117Y-140180029D01*
X97305449Y-140306287D01*
X97330476Y-140355405D01*
X97446172Y-140514646D01*
X97585354Y-140653828D01*
X97744595Y-140769524D01*
X97827455Y-140811743D01*
X97919970Y-140858882D01*
X97919972Y-140858882D01*
X97919975Y-140858884D01*
X98020317Y-140891487D01*
X98107173Y-140919709D01*
X98301578Y-140950500D01*
X98301583Y-140950500D01*
X98498422Y-140950500D01*
X98692826Y-140919709D01*
X98729416Y-140907820D01*
X98880025Y-140858884D01*
X99055405Y-140769524D01*
X99214646Y-140653828D01*
X99353828Y-140514646D01*
X99469524Y-140355405D01*
X99558884Y-140180025D01*
X99619709Y-139992826D01*
X99650500Y-139798422D01*
X99650500Y-139601577D01*
X99619709Y-139407173D01*
X99558882Y-139219970D01*
X99469523Y-139044594D01*
X99353828Y-138885354D01*
X99214646Y-138746172D01*
X99055405Y-138630476D01*
X98880029Y-138541117D01*
X98692826Y-138480290D01*
X98498422Y-138449500D01*
X98498417Y-138449500D01*
X98301583Y-138449500D01*
X98301578Y-138449500D01*
X98107173Y-138480290D01*
X97919970Y-138541117D01*
X97744594Y-138630476D01*
X97662518Y-138690109D01*
X97585354Y-138746172D01*
X97585352Y-138746174D01*
X97585351Y-138746174D01*
X97446174Y-138885351D01*
X97446174Y-138885352D01*
X97446172Y-138885354D01*
X97417591Y-138924692D01*
X97330476Y-139044594D01*
X97241117Y-139219970D01*
X97180290Y-139407173D01*
X97149500Y-139601577D01*
X66400500Y-139601577D01*
X66400500Y-133159765D01*
X66420185Y-133092726D01*
X66421398Y-133090874D01*
X66509390Y-132959185D01*
X66509390Y-132959184D01*
X66509394Y-132959179D01*
X66569737Y-132813497D01*
X66595041Y-132686286D01*
X66600638Y-132658150D01*
X66633023Y-132596239D01*
X66634522Y-132594712D01*
X67033506Y-132195727D01*
X67033511Y-132195724D01*
X67043714Y-132185520D01*
X67043716Y-132185520D01*
X67155520Y-132073716D01*
X67209915Y-131979500D01*
X67234577Y-131936785D01*
X67275501Y-131784057D01*
X67275501Y-131625943D01*
X67275501Y-131618348D01*
X67275500Y-131618330D01*
X67275500Y-125425097D01*
X67295185Y-125358058D01*
X67311819Y-125337416D01*
X67412416Y-125236819D01*
X67439343Y-125222115D01*
X67465162Y-125205523D01*
X67471362Y-125204631D01*
X67473739Y-125203334D01*
X67500097Y-125200500D01*
X67605832Y-125200500D01*
X67672871Y-125220185D01*
X67718626Y-125272989D01*
X67728570Y-125342147D01*
X67708933Y-125393392D01*
X67690610Y-125420812D01*
X67690602Y-125420827D01*
X67630264Y-125566498D01*
X67630261Y-125566510D01*
X67599500Y-125721153D01*
X67599500Y-125878846D01*
X67630261Y-126033489D01*
X67630264Y-126033501D01*
X67690602Y-126179172D01*
X67690609Y-126179185D01*
X67778210Y-126310288D01*
X67778213Y-126310292D01*
X67889707Y-126421786D01*
X67889711Y-126421789D01*
X68020814Y-126509390D01*
X68020827Y-126509397D01*
X68166498Y-126569735D01*
X68166503Y-126569737D01*
X68263641Y-126589059D01*
X68321153Y-126600499D01*
X68321156Y-126600500D01*
X68321158Y-126600500D01*
X68478844Y-126600500D01*
X68478845Y-126600499D01*
X68633497Y-126569737D01*
X68766497Y-126514647D01*
X68779172Y-126509397D01*
X68779172Y-126509396D01*
X68779179Y-126509394D01*
X68910289Y-126421789D01*
X69021789Y-126310289D01*
X69109394Y-126179179D01*
X69169737Y-126033497D01*
X69189630Y-125933489D01*
X69200638Y-125878150D01*
X69233023Y-125816239D01*
X69234518Y-125814716D01*
X69412416Y-125636819D01*
X69473739Y-125603334D01*
X69500097Y-125600500D01*
X77550902Y-125600500D01*
X77617941Y-125620185D01*
X77663696Y-125672989D01*
X77673640Y-125742147D01*
X77644615Y-125805703D01*
X77638583Y-125812181D01*
X77319481Y-126131282D01*
X77319479Y-126131284D01*
X77303735Y-126158556D01*
X77291340Y-126180025D01*
X77240423Y-126268215D01*
X77199499Y-126420943D01*
X77199499Y-126420945D01*
X77199499Y-126589046D01*
X77199500Y-126589059D01*
X77199500Y-137720234D01*
X77179815Y-137787273D01*
X77178602Y-137789125D01*
X77090609Y-137920814D01*
X77090602Y-137920827D01*
X77030264Y-138066498D01*
X77030261Y-138066510D01*
X76999500Y-138221153D01*
X76999500Y-138378846D01*
X77030261Y-138533489D01*
X77030264Y-138533501D01*
X77090602Y-138679172D01*
X77090609Y-138679185D01*
X77178210Y-138810288D01*
X77178213Y-138810292D01*
X77289707Y-138921786D01*
X77289711Y-138921789D01*
X77420814Y-139009390D01*
X77420827Y-139009397D01*
X77566498Y-139069735D01*
X77566503Y-139069737D01*
X77721153Y-139100499D01*
X77721156Y-139100500D01*
X77721158Y-139100500D01*
X77878844Y-139100500D01*
X77878845Y-139100499D01*
X78033497Y-139069737D01*
X78179179Y-139009394D01*
X78310289Y-138921789D01*
X78421789Y-138810289D01*
X78509394Y-138679179D01*
X78569737Y-138533497D01*
X78600500Y-138378842D01*
X78600500Y-138221158D01*
X78600500Y-138221155D01*
X78600499Y-138221153D01*
X78569738Y-138066510D01*
X78569737Y-138066503D01*
X78569735Y-138066498D01*
X78509397Y-137920827D01*
X78509390Y-137920814D01*
X78421398Y-137789125D01*
X78400520Y-137722447D01*
X78400500Y-137720234D01*
X78400500Y-136101577D01*
X102149500Y-136101577D01*
X102149500Y-136298422D01*
X102180290Y-136492826D01*
X102241117Y-136680029D01*
X102292161Y-136780208D01*
X102330476Y-136855405D01*
X102446172Y-137014646D01*
X102585354Y-137153828D01*
X102744595Y-137269524D01*
X102827455Y-137311743D01*
X102919970Y-137358882D01*
X102919972Y-137358882D01*
X102919975Y-137358884D01*
X103020317Y-137391487D01*
X103107173Y-137419709D01*
X103301578Y-137450500D01*
X103301583Y-137450500D01*
X103498422Y-137450500D01*
X103692826Y-137419709D01*
X103880025Y-137358884D01*
X104055405Y-137269524D01*
X104214646Y-137153828D01*
X104353828Y-137014646D01*
X104469524Y-136855405D01*
X104558884Y-136680025D01*
X104619709Y-136492826D01*
X104638916Y-136371557D01*
X104650500Y-136298422D01*
X104650500Y-136101577D01*
X104619709Y-135907173D01*
X104558882Y-135719970D01*
X104469523Y-135544594D01*
X104353828Y-135385354D01*
X104214646Y-135246172D01*
X104055405Y-135130476D01*
X103880029Y-135041117D01*
X103692826Y-134980290D01*
X103498422Y-134949500D01*
X103498417Y-134949500D01*
X103301583Y-134949500D01*
X103301578Y-134949500D01*
X103107173Y-134980290D01*
X102919970Y-135041117D01*
X102744594Y-135130476D01*
X102653741Y-135196485D01*
X102585354Y-135246172D01*
X102585352Y-135246174D01*
X102585351Y-135246174D01*
X102446174Y-135385351D01*
X102446174Y-135385352D01*
X102446172Y-135385354D01*
X102409202Y-135436239D01*
X102330476Y-135544594D01*
X102241117Y-135719970D01*
X102180290Y-135907173D01*
X102149500Y-136101577D01*
X78400500Y-136101577D01*
X78400500Y-132601577D01*
X97149500Y-132601577D01*
X97149500Y-132798422D01*
X97180290Y-132992826D01*
X97241117Y-133180029D01*
X97296038Y-133287816D01*
X97330476Y-133355405D01*
X97446172Y-133514646D01*
X97585354Y-133653828D01*
X97744595Y-133769524D01*
X97827455Y-133811743D01*
X97919970Y-133858882D01*
X97919972Y-133858882D01*
X97919975Y-133858884D01*
X98020317Y-133891487D01*
X98107173Y-133919709D01*
X98301578Y-133950500D01*
X98301583Y-133950500D01*
X98498422Y-133950500D01*
X98692826Y-133919709D01*
X98714976Y-133912512D01*
X98880025Y-133858884D01*
X99055405Y-133769524D01*
X99214646Y-133653828D01*
X99353828Y-133514646D01*
X99469524Y-133355405D01*
X99558884Y-133180025D01*
X99619709Y-132992826D01*
X99635007Y-132896239D01*
X99650500Y-132798422D01*
X99650500Y-132601577D01*
X99619709Y-132407173D01*
X99591487Y-132320317D01*
X99558884Y-132219975D01*
X99558882Y-132219972D01*
X99558882Y-132219970D01*
X99484362Y-132073717D01*
X99469524Y-132044595D01*
X99353828Y-131885354D01*
X99214646Y-131746172D01*
X99055405Y-131630476D01*
X98880029Y-131541117D01*
X98692826Y-131480290D01*
X98498422Y-131449500D01*
X98498417Y-131449500D01*
X98301583Y-131449500D01*
X98301578Y-131449500D01*
X98107173Y-131480290D01*
X97919970Y-131541117D01*
X97744594Y-131630476D01*
X97653741Y-131696485D01*
X97585354Y-131746172D01*
X97585352Y-131746174D01*
X97585351Y-131746174D01*
X97446174Y-131885351D01*
X97446174Y-131885352D01*
X97446172Y-131885354D01*
X97408805Y-131936785D01*
X97330476Y-132044594D01*
X97241117Y-132219970D01*
X97180290Y-132407173D01*
X97149500Y-132601577D01*
X78400500Y-132601577D01*
X78400500Y-129101577D01*
X102149500Y-129101577D01*
X102149500Y-129298422D01*
X102180290Y-129492826D01*
X102241117Y-129680029D01*
X102310658Y-129816510D01*
X102330476Y-129855405D01*
X102446172Y-130014646D01*
X102585354Y-130153828D01*
X102744595Y-130269524D01*
X102772019Y-130283497D01*
X102919970Y-130358882D01*
X102919972Y-130358882D01*
X102919975Y-130358884D01*
X103020317Y-130391487D01*
X103107173Y-130419709D01*
X103301578Y-130450500D01*
X103301583Y-130450500D01*
X103498422Y-130450500D01*
X103692826Y-130419709D01*
X103880025Y-130358884D01*
X104055405Y-130269524D01*
X104214646Y-130153828D01*
X104353828Y-130014646D01*
X104469524Y-129855405D01*
X104558884Y-129680025D01*
X104619709Y-129492826D01*
X104623287Y-129470234D01*
X104650500Y-129298422D01*
X104650500Y-129101577D01*
X104619709Y-128907173D01*
X104575138Y-128770000D01*
X104558884Y-128719975D01*
X104558882Y-128719972D01*
X104558882Y-128719970D01*
X104469523Y-128544594D01*
X104458999Y-128530109D01*
X104353828Y-128385354D01*
X104214646Y-128246172D01*
X104055405Y-128130476D01*
X103880029Y-128041117D01*
X103692826Y-127980290D01*
X103498422Y-127949500D01*
X103498417Y-127949500D01*
X103301583Y-127949500D01*
X103301578Y-127949500D01*
X103107173Y-127980290D01*
X102919970Y-128041117D01*
X102744594Y-128130476D01*
X102653741Y-128196485D01*
X102585354Y-128246172D01*
X102585352Y-128246174D01*
X102585351Y-128246174D01*
X102446174Y-128385351D01*
X102446174Y-128385352D01*
X102446172Y-128385354D01*
X102396485Y-128453741D01*
X102330476Y-128544594D01*
X102241117Y-128719970D01*
X102180290Y-128907173D01*
X102149500Y-129101577D01*
X78400500Y-129101577D01*
X78400500Y-126800097D01*
X78420185Y-126733058D01*
X78436819Y-126712416D01*
X78812416Y-126336819D01*
X78873739Y-126303334D01*
X78900097Y-126300500D01*
X81420234Y-126300500D01*
X81487273Y-126320185D01*
X81489125Y-126321398D01*
X81620814Y-126409390D01*
X81620827Y-126409397D01*
X81766498Y-126469735D01*
X81766503Y-126469737D01*
X81921153Y-126500499D01*
X81921156Y-126500500D01*
X81921158Y-126500500D01*
X82078844Y-126500500D01*
X82078845Y-126500499D01*
X82233497Y-126469737D01*
X82379179Y-126409394D01*
X82510289Y-126321789D01*
X82621789Y-126210289D01*
X82709394Y-126079179D01*
X82769737Y-125933497D01*
X82800500Y-125778842D01*
X82800500Y-125724500D01*
X82820185Y-125657461D01*
X82872989Y-125611706D01*
X82919549Y-125601577D01*
X97149500Y-125601577D01*
X97149500Y-125798422D01*
X97180290Y-125992826D01*
X97241117Y-126180029D01*
X97313346Y-126321786D01*
X97330476Y-126355405D01*
X97446172Y-126514646D01*
X97585354Y-126653828D01*
X97744595Y-126769524D01*
X97827455Y-126811743D01*
X97919970Y-126858882D01*
X97919972Y-126858882D01*
X97919975Y-126858884D01*
X98020317Y-126891487D01*
X98107173Y-126919709D01*
X98301578Y-126950500D01*
X98301583Y-126950500D01*
X98498422Y-126950500D01*
X98692826Y-126919709D01*
X98880025Y-126858884D01*
X99055405Y-126769524D01*
X99214646Y-126653828D01*
X99353828Y-126514646D01*
X99469524Y-126355405D01*
X99558884Y-126180025D01*
X99619709Y-125992826D01*
X99629107Y-125933489D01*
X99650500Y-125798422D01*
X99650500Y-125601577D01*
X99619709Y-125407173D01*
X99558882Y-125219970D01*
X99511743Y-125127455D01*
X99469524Y-125044595D01*
X99353828Y-124885354D01*
X99214646Y-124746172D01*
X99055405Y-124630476D01*
X99036699Y-124620945D01*
X98880029Y-124541117D01*
X98692826Y-124480290D01*
X98498422Y-124449500D01*
X98498417Y-124449500D01*
X98301583Y-124449500D01*
X98301578Y-124449500D01*
X98107173Y-124480290D01*
X97919970Y-124541117D01*
X97744594Y-124630476D01*
X97653741Y-124696485D01*
X97585354Y-124746172D01*
X97585352Y-124746174D01*
X97585351Y-124746174D01*
X97446174Y-124885351D01*
X97446174Y-124885352D01*
X97446172Y-124885354D01*
X97396485Y-124953741D01*
X97330476Y-125044594D01*
X97241117Y-125219970D01*
X97180290Y-125407173D01*
X97149500Y-125601577D01*
X82919549Y-125601577D01*
X82924500Y-125600500D01*
X86913331Y-125600500D01*
X86913347Y-125600501D01*
X86920943Y-125600501D01*
X87079054Y-125600501D01*
X87079057Y-125600501D01*
X87231785Y-125559577D01*
X87317211Y-125510256D01*
X87368716Y-125480520D01*
X87480520Y-125368716D01*
X87480520Y-125368715D01*
X87497948Y-125351287D01*
X87497953Y-125351280D01*
X87680520Y-125168716D01*
X87759577Y-125031784D01*
X87800501Y-124879057D01*
X87800501Y-124720942D01*
X87800501Y-124713347D01*
X87800500Y-124713329D01*
X87800500Y-122101577D01*
X102149500Y-122101577D01*
X102149500Y-122298422D01*
X102180290Y-122492826D01*
X102241117Y-122680029D01*
X102282429Y-122761107D01*
X102330476Y-122855405D01*
X102446172Y-123014646D01*
X102585354Y-123153828D01*
X102744595Y-123269524D01*
X102803988Y-123299786D01*
X102919970Y-123358882D01*
X102919972Y-123358882D01*
X102919975Y-123358884D01*
X103020317Y-123391487D01*
X103107173Y-123419709D01*
X103301578Y-123450500D01*
X103301583Y-123450500D01*
X103498422Y-123450500D01*
X103692826Y-123419709D01*
X103738809Y-123404768D01*
X103880025Y-123358884D01*
X104055405Y-123269524D01*
X104214646Y-123153828D01*
X104353828Y-123014646D01*
X104469524Y-122855405D01*
X104558884Y-122680025D01*
X104619709Y-122492826D01*
X104631416Y-122418913D01*
X104650500Y-122298422D01*
X104650500Y-122101577D01*
X104619709Y-121907173D01*
X104558882Y-121719970D01*
X104469523Y-121544594D01*
X104466340Y-121540213D01*
X104353828Y-121385354D01*
X104214646Y-121246172D01*
X104055405Y-121130476D01*
X103880029Y-121041117D01*
X103692826Y-120980290D01*
X103498422Y-120949500D01*
X103498417Y-120949500D01*
X103301583Y-120949500D01*
X103301578Y-120949500D01*
X103107173Y-120980290D01*
X102919970Y-121041117D01*
X102744594Y-121130476D01*
X102710411Y-121155312D01*
X102585354Y-121246172D01*
X102585352Y-121246174D01*
X102585351Y-121246174D01*
X102446174Y-121385351D01*
X102446174Y-121385352D01*
X102446172Y-121385354D01*
X102396485Y-121453741D01*
X102330476Y-121544594D01*
X102241117Y-121719970D01*
X102180290Y-121907173D01*
X102149500Y-122101577D01*
X87800500Y-122101577D01*
X87800500Y-120579765D01*
X87820185Y-120512726D01*
X87821398Y-120510874D01*
X87909390Y-120379185D01*
X87909390Y-120379184D01*
X87909394Y-120379179D01*
X87969737Y-120233497D01*
X88000500Y-120078842D01*
X88000500Y-119921158D01*
X88000500Y-119921155D01*
X88000499Y-119921153D01*
X87969738Y-119766510D01*
X87969737Y-119766503D01*
X87969735Y-119766498D01*
X87909397Y-119620827D01*
X87909390Y-119620814D01*
X87821789Y-119489711D01*
X87821786Y-119489707D01*
X87710292Y-119378213D01*
X87710288Y-119378210D01*
X87579185Y-119290609D01*
X87579172Y-119290602D01*
X87433501Y-119230264D01*
X87433489Y-119230261D01*
X87278845Y-119199500D01*
X87278842Y-119199500D01*
X87121158Y-119199500D01*
X87121155Y-119199500D01*
X86966510Y-119230261D01*
X86966498Y-119230264D01*
X86820827Y-119290602D01*
X86820814Y-119290609D01*
X86689711Y-119378210D01*
X86689707Y-119378213D01*
X86578213Y-119489707D01*
X86578210Y-119489711D01*
X86503102Y-119602118D01*
X86449490Y-119646923D01*
X86380165Y-119655630D01*
X86317137Y-119625475D01*
X86296898Y-119602118D01*
X86221789Y-119489711D01*
X86221786Y-119489707D01*
X86110292Y-119378213D01*
X86110288Y-119378210D01*
X85979185Y-119290609D01*
X85979172Y-119290602D01*
X85833501Y-119230264D01*
X85833489Y-119230261D01*
X85678845Y-119199500D01*
X85678842Y-119199500D01*
X85521158Y-119199500D01*
X85521155Y-119199500D01*
X85366510Y-119230261D01*
X85366498Y-119230264D01*
X85220827Y-119290602D01*
X85220814Y-119290609D01*
X85089711Y-119378210D01*
X85089707Y-119378213D01*
X85087681Y-119380240D01*
X85086357Y-119380962D01*
X85085001Y-119382076D01*
X85084789Y-119381818D01*
X85026358Y-119413725D01*
X84956666Y-119408741D01*
X84915060Y-119382001D01*
X84914999Y-119382076D01*
X84914360Y-119381552D01*
X84912319Y-119380240D01*
X84910292Y-119378213D01*
X84910288Y-119378210D01*
X84779185Y-119290609D01*
X84779172Y-119290602D01*
X84633501Y-119230264D01*
X84633489Y-119230261D01*
X84478845Y-119199500D01*
X84478842Y-119199500D01*
X84321158Y-119199500D01*
X84321155Y-119199500D01*
X84166510Y-119230261D01*
X84166498Y-119230264D01*
X84020827Y-119290602D01*
X84020809Y-119290612D01*
X83943390Y-119342342D01*
X83876713Y-119363220D01*
X83809333Y-119344735D01*
X83762643Y-119292756D01*
X83750500Y-119239240D01*
X83750500Y-118674500D01*
X83770185Y-118607461D01*
X83822989Y-118561706D01*
X83874500Y-118550500D01*
X87695396Y-118550500D01*
X87742844Y-118559937D01*
X87766503Y-118569737D01*
X87766508Y-118569738D01*
X87766511Y-118569739D01*
X87921153Y-118600499D01*
X87921156Y-118600500D01*
X87921158Y-118600500D01*
X88078844Y-118600500D01*
X88078845Y-118600499D01*
X88233497Y-118569737D01*
X88379179Y-118509394D01*
X88510289Y-118421789D01*
X88621789Y-118310289D01*
X88709394Y-118179179D01*
X88769737Y-118033497D01*
X88800500Y-117878842D01*
X88800500Y-117721158D01*
X88800500Y-117721155D01*
X88800499Y-117721153D01*
X88769737Y-117566503D01*
X88751131Y-117521584D01*
X88709397Y-117420827D01*
X88709390Y-117420814D01*
X88621789Y-117289711D01*
X88621786Y-117289707D01*
X88510292Y-117178213D01*
X88510288Y-117178210D01*
X88379185Y-117090609D01*
X88379172Y-117090602D01*
X88233501Y-117030264D01*
X88233489Y-117030261D01*
X88078845Y-116999500D01*
X88078842Y-116999500D01*
X87921158Y-116999500D01*
X87921155Y-116999500D01*
X87766511Y-117030260D01*
X87766506Y-117030262D01*
X87766504Y-117030262D01*
X87766503Y-117030263D01*
X87742844Y-117040062D01*
X87695396Y-117049500D01*
X83126076Y-117049500D01*
X83097242Y-117055234D01*
X83097243Y-117055235D01*
X82981093Y-117078339D01*
X82981083Y-117078342D01*
X82901081Y-117111479D01*
X82901082Y-117111480D01*
X82844502Y-117134917D01*
X82795269Y-117167813D01*
X82721588Y-117217044D01*
X82721580Y-117217050D01*
X82417047Y-117521584D01*
X82417045Y-117521586D01*
X82395594Y-117553692D01*
X82387035Y-117566503D01*
X82360885Y-117605638D01*
X82334914Y-117644507D01*
X82278343Y-117781082D01*
X82278340Y-117781092D01*
X82249500Y-117926079D01*
X82249500Y-121725500D01*
X82229815Y-121792539D01*
X82177011Y-121838294D01*
X82125500Y-121849500D01*
X79104604Y-121849500D01*
X79057155Y-121840062D01*
X79033497Y-121830263D01*
X79033493Y-121830262D01*
X79033488Y-121830260D01*
X78878845Y-121799500D01*
X78878842Y-121799500D01*
X78721158Y-121799500D01*
X78721155Y-121799500D01*
X78566511Y-121830260D01*
X78566506Y-121830262D01*
X78566504Y-121830262D01*
X78566503Y-121830263D01*
X78542844Y-121840062D01*
X78495396Y-121849500D01*
X72904604Y-121849500D01*
X72857155Y-121840062D01*
X72833497Y-121830263D01*
X72833493Y-121830262D01*
X72833488Y-121830260D01*
X72678845Y-121799500D01*
X72678842Y-121799500D01*
X72521158Y-121799500D01*
X72521155Y-121799500D01*
X72366511Y-121830260D01*
X72366506Y-121830262D01*
X72366504Y-121830262D01*
X72366503Y-121830263D01*
X72342844Y-121840062D01*
X72295396Y-121849500D01*
X67474500Y-121849500D01*
X67407461Y-121829815D01*
X67361706Y-121777011D01*
X67350500Y-121725500D01*
X67350500Y-112926079D01*
X67321659Y-112781092D01*
X67321658Y-112781091D01*
X67321658Y-112781087D01*
X67265084Y-112644505D01*
X67232186Y-112595270D01*
X67232185Y-112595268D01*
X67182956Y-112521589D01*
X67182952Y-112521584D01*
X66338413Y-111677045D01*
X66289179Y-111644150D01*
X66256355Y-111622218D01*
X66215495Y-111594916D01*
X66215494Y-111594915D01*
X66215492Y-111594914D01*
X66215490Y-111594913D01*
X66078917Y-111538343D01*
X66078907Y-111538340D01*
X65933920Y-111509500D01*
X65933918Y-111509500D01*
X64474499Y-111509500D01*
X64407460Y-111489815D01*
X64361705Y-111437011D01*
X64350499Y-111385500D01*
X64350499Y-111362129D01*
X64350498Y-111362123D01*
X64350497Y-111362116D01*
X64344091Y-111302517D01*
X64293796Y-111167669D01*
X64293795Y-111167668D01*
X64293793Y-111167664D01*
X64207547Y-111052455D01*
X64207544Y-111052452D01*
X64092335Y-110966206D01*
X64092328Y-110966202D01*
X63957482Y-110915908D01*
X63957483Y-110915908D01*
X63897883Y-110909501D01*
X63897881Y-110909500D01*
X63897873Y-110909500D01*
X63897864Y-110909500D01*
X62102129Y-110909500D01*
X62102123Y-110909501D01*
X62042516Y-110915908D01*
X61907671Y-110966202D01*
X61907664Y-110966206D01*
X61792455Y-111052452D01*
X61792452Y-111052455D01*
X61706206Y-111167664D01*
X61706202Y-111167671D01*
X61655908Y-111302517D01*
X61649501Y-111362116D01*
X61649501Y-111362123D01*
X61649500Y-111362135D01*
X60500500Y-111362135D01*
X60500500Y-105721153D01*
X65999500Y-105721153D01*
X65999500Y-105878846D01*
X66030261Y-106033489D01*
X66030264Y-106033501D01*
X66090602Y-106179172D01*
X66090609Y-106179185D01*
X66178210Y-106310288D01*
X66178213Y-106310292D01*
X66289707Y-106421786D01*
X66289711Y-106421789D01*
X66420814Y-106509390D01*
X66420827Y-106509397D01*
X66566498Y-106569735D01*
X66566503Y-106569737D01*
X66721153Y-106600499D01*
X66721156Y-106600500D01*
X66721158Y-106600500D01*
X66878844Y-106600500D01*
X66878845Y-106600499D01*
X67033497Y-106569737D01*
X67179179Y-106509394D01*
X67310289Y-106421789D01*
X67421789Y-106310289D01*
X67509394Y-106179179D01*
X67569737Y-106033497D01*
X67589113Y-105936085D01*
X67600638Y-105878150D01*
X67633023Y-105816239D01*
X67634518Y-105814716D01*
X71512416Y-101936819D01*
X71573739Y-101903334D01*
X71600097Y-101900500D01*
X72750902Y-101900500D01*
X72817941Y-101920185D01*
X72863696Y-101972989D01*
X72873640Y-102042147D01*
X72844615Y-102105703D01*
X72838583Y-102112181D01*
X67385339Y-107565425D01*
X67324016Y-107598910D01*
X67321850Y-107599361D01*
X67166508Y-107630261D01*
X67166498Y-107630264D01*
X67020827Y-107690602D01*
X67020814Y-107690609D01*
X66889711Y-107778210D01*
X66889707Y-107778213D01*
X66778213Y-107889707D01*
X66778210Y-107889711D01*
X66690609Y-108020814D01*
X66690602Y-108020827D01*
X66630264Y-108166498D01*
X66630261Y-108166510D01*
X66599500Y-108321153D01*
X66599500Y-108478846D01*
X66630261Y-108633489D01*
X66630264Y-108633501D01*
X66690602Y-108779172D01*
X66690609Y-108779185D01*
X66778210Y-108910288D01*
X66778213Y-108910292D01*
X66889707Y-109021786D01*
X66889711Y-109021789D01*
X67020814Y-109109390D01*
X67020827Y-109109397D01*
X67166498Y-109169735D01*
X67166503Y-109169737D01*
X67321153Y-109200499D01*
X67321156Y-109200500D01*
X67321158Y-109200500D01*
X67478844Y-109200500D01*
X67478845Y-109200499D01*
X67633497Y-109169737D01*
X67779179Y-109109394D01*
X67910289Y-109021789D01*
X68021789Y-108910289D01*
X68109394Y-108779179D01*
X68169737Y-108633497D01*
X68189113Y-108536085D01*
X68200638Y-108478150D01*
X68233023Y-108416239D01*
X68234518Y-108414716D01*
X73462416Y-103186819D01*
X73523739Y-103153334D01*
X73550097Y-103150500D01*
X84445234Y-103150500D01*
X84512273Y-103170185D01*
X84514125Y-103171398D01*
X84645814Y-103259390D01*
X84645827Y-103259397D01*
X84791498Y-103319735D01*
X84791503Y-103319737D01*
X84946153Y-103350499D01*
X84946156Y-103350500D01*
X84946158Y-103350500D01*
X85103844Y-103350500D01*
X85103845Y-103350499D01*
X85258497Y-103319737D01*
X85404179Y-103259394D01*
X85535289Y-103171789D01*
X85646789Y-103060289D01*
X85734394Y-102929179D01*
X85794737Y-102783497D01*
X85825500Y-102628842D01*
X85825500Y-102471158D01*
X85821605Y-102451577D01*
X97149500Y-102451577D01*
X97149500Y-102648422D01*
X97180290Y-102842826D01*
X97241117Y-103030029D01*
X97313346Y-103171786D01*
X97330476Y-103205405D01*
X97446172Y-103364646D01*
X97585354Y-103503828D01*
X97744595Y-103619524D01*
X97827455Y-103661743D01*
X97919970Y-103708882D01*
X97919972Y-103708882D01*
X97919975Y-103708884D01*
X98020317Y-103741487D01*
X98107173Y-103769709D01*
X98301578Y-103800500D01*
X98301583Y-103800500D01*
X98498422Y-103800500D01*
X98692826Y-103769709D01*
X98880025Y-103708884D01*
X99055405Y-103619524D01*
X99214646Y-103503828D01*
X99353828Y-103364646D01*
X99469524Y-103205405D01*
X99558884Y-103030025D01*
X99619709Y-102842826D01*
X99629107Y-102783489D01*
X99650500Y-102648422D01*
X99650500Y-102451577D01*
X99619709Y-102257173D01*
X99578867Y-102131477D01*
X99558884Y-102069975D01*
X99558882Y-102069972D01*
X99558882Y-102069970D01*
X99483378Y-101921786D01*
X99469524Y-101894595D01*
X99353828Y-101735354D01*
X99214646Y-101596172D01*
X99055405Y-101480476D01*
X98880029Y-101391117D01*
X98692826Y-101330290D01*
X98498422Y-101299500D01*
X98498417Y-101299500D01*
X98301583Y-101299500D01*
X98301578Y-101299500D01*
X98107173Y-101330290D01*
X97919970Y-101391117D01*
X97744594Y-101480476D01*
X97671629Y-101533489D01*
X97585354Y-101596172D01*
X97585352Y-101596174D01*
X97585351Y-101596174D01*
X97446174Y-101735351D01*
X97446174Y-101735352D01*
X97446172Y-101735354D01*
X97396485Y-101803741D01*
X97330476Y-101894594D01*
X97241117Y-102069970D01*
X97180290Y-102257173D01*
X97149500Y-102451577D01*
X85821605Y-102451577D01*
X85794737Y-102316503D01*
X85771275Y-102259860D01*
X85769087Y-102251307D01*
X85770017Y-102224863D01*
X85767189Y-102198560D01*
X85771225Y-102190495D01*
X85771543Y-102181481D01*
X85786620Y-102159740D01*
X85798464Y-102136080D01*
X85806221Y-102131477D01*
X85811361Y-102124067D01*
X85835796Y-102113929D01*
X85858553Y-102100428D01*
X85869017Y-102100147D01*
X85875897Y-102097294D01*
X85888819Y-102099618D01*
X85913415Y-102098960D01*
X85921155Y-102100500D01*
X85921158Y-102100500D01*
X86078844Y-102100500D01*
X86078845Y-102100499D01*
X86233497Y-102069737D01*
X86379179Y-102009394D01*
X86510289Y-101921789D01*
X86621789Y-101810289D01*
X86709394Y-101679179D01*
X86769737Y-101533497D01*
X86800500Y-101378842D01*
X86800500Y-101221158D01*
X86800500Y-101221155D01*
X86800499Y-101221153D01*
X86769738Y-101066510D01*
X86769737Y-101066503D01*
X86713728Y-100931284D01*
X86709397Y-100920827D01*
X86709390Y-100920814D01*
X86621789Y-100789711D01*
X86621786Y-100789707D01*
X86510292Y-100678213D01*
X86510288Y-100678210D01*
X86379185Y-100590609D01*
X86379172Y-100590602D01*
X86233501Y-100530264D01*
X86233489Y-100530261D01*
X86078845Y-100499500D01*
X86078842Y-100499500D01*
X85921158Y-100499500D01*
X85921155Y-100499500D01*
X85766510Y-100530261D01*
X85766498Y-100530264D01*
X85620827Y-100590602D01*
X85620814Y-100590609D01*
X85489125Y-100678602D01*
X85422447Y-100699480D01*
X85420234Y-100699500D01*
X71386669Y-100699500D01*
X71386653Y-100699499D01*
X71379057Y-100699499D01*
X71220943Y-100699499D01*
X71113587Y-100728265D01*
X71068210Y-100740424D01*
X71068209Y-100740425D01*
X71018096Y-100769359D01*
X71018095Y-100769360D01*
X70982853Y-100789707D01*
X70931285Y-100819479D01*
X70931282Y-100819481D01*
X66785339Y-104965425D01*
X66724016Y-104998910D01*
X66721850Y-104999361D01*
X66566508Y-105030261D01*
X66566498Y-105030264D01*
X66420827Y-105090602D01*
X66420814Y-105090609D01*
X66289711Y-105178210D01*
X66289707Y-105178213D01*
X66178213Y-105289707D01*
X66178210Y-105289711D01*
X66090609Y-105420814D01*
X66090602Y-105420827D01*
X66030264Y-105566498D01*
X66030261Y-105566510D01*
X65999500Y-105721153D01*
X60500500Y-105721153D01*
X60500500Y-98951617D01*
X102150000Y-98951617D01*
X102150000Y-99148382D01*
X102180778Y-99342705D01*
X102241581Y-99529835D01*
X102330905Y-99705145D01*
X102356319Y-99740125D01*
X102356320Y-99740125D01*
X102917037Y-99179408D01*
X102934075Y-99242993D01*
X102999901Y-99357007D01*
X103092993Y-99450099D01*
X103207007Y-99515925D01*
X103270590Y-99532962D01*
X102709873Y-100093677D01*
X102709873Y-100093678D01*
X102744858Y-100119096D01*
X102920164Y-100208418D01*
X103107294Y-100269221D01*
X103301618Y-100300000D01*
X103498382Y-100300000D01*
X103692705Y-100269221D01*
X103879835Y-100208418D01*
X104055143Y-100119095D01*
X104090125Y-100093678D01*
X104090126Y-100093678D01*
X103529410Y-99532962D01*
X103592993Y-99515925D01*
X103707007Y-99450099D01*
X103800099Y-99357007D01*
X103865925Y-99242993D01*
X103882962Y-99179409D01*
X104443678Y-99740126D01*
X104443678Y-99740125D01*
X104469095Y-99705143D01*
X104558418Y-99529835D01*
X104619221Y-99342705D01*
X104650000Y-99148382D01*
X104650000Y-98951617D01*
X104619221Y-98757294D01*
X104558418Y-98570164D01*
X104469096Y-98394858D01*
X104443678Y-98359873D01*
X104443677Y-98359873D01*
X103882962Y-98920589D01*
X103865925Y-98857007D01*
X103800099Y-98742993D01*
X103707007Y-98649901D01*
X103592993Y-98584075D01*
X103529409Y-98567037D01*
X104090125Y-98006320D01*
X104090125Y-98006319D01*
X104055145Y-97980905D01*
X103879835Y-97891581D01*
X103692705Y-97830778D01*
X103498382Y-97800000D01*
X103301618Y-97800000D01*
X103107294Y-97830778D01*
X102920161Y-97891582D01*
X102744863Y-97980899D01*
X102744859Y-97980902D01*
X102709873Y-98006320D01*
X102709872Y-98006320D01*
X103270590Y-98567037D01*
X103207007Y-98584075D01*
X103092993Y-98649901D01*
X102999901Y-98742993D01*
X102934075Y-98857007D01*
X102917037Y-98920590D01*
X102356320Y-98359872D01*
X102356320Y-98359873D01*
X102330902Y-98394859D01*
X102330899Y-98394863D01*
X102241582Y-98570161D01*
X102180778Y-98757294D01*
X102150000Y-98951617D01*
X60500500Y-98951617D01*
X60500500Y-92881902D01*
X61499500Y-92881902D01*
X61499500Y-93118097D01*
X61536446Y-93351368D01*
X61609433Y-93575996D01*
X61716657Y-93786433D01*
X61855483Y-93977510D01*
X62022490Y-94144517D01*
X62213567Y-94283343D01*
X62312991Y-94334002D01*
X62424003Y-94390566D01*
X62424005Y-94390566D01*
X62424008Y-94390568D01*
X62544412Y-94429689D01*
X62648631Y-94463553D01*
X62881903Y-94500500D01*
X62881908Y-94500500D01*
X63118097Y-94500500D01*
X63351368Y-94463553D01*
X63575992Y-94390568D01*
X63786433Y-94283343D01*
X63977510Y-94144517D01*
X64144517Y-93977510D01*
X64283343Y-93786433D01*
X64390568Y-93575992D01*
X64463553Y-93351368D01*
X64500500Y-93118097D01*
X64500500Y-92881902D01*
X104499500Y-92881902D01*
X104499500Y-93118097D01*
X104536446Y-93351368D01*
X104609433Y-93575996D01*
X104716657Y-93786433D01*
X104855483Y-93977510D01*
X105022490Y-94144517D01*
X105213567Y-94283343D01*
X105312991Y-94334002D01*
X105424003Y-94390566D01*
X105424005Y-94390566D01*
X105424008Y-94390568D01*
X105544412Y-94429689D01*
X105648631Y-94463553D01*
X105881903Y-94500500D01*
X105881908Y-94500500D01*
X106118097Y-94500500D01*
X106351368Y-94463553D01*
X106575992Y-94390568D01*
X106786433Y-94283343D01*
X106977510Y-94144517D01*
X107144517Y-93977510D01*
X107283343Y-93786433D01*
X107390568Y-93575992D01*
X107463553Y-93351368D01*
X107500500Y-93118097D01*
X107500500Y-92881902D01*
X107463553Y-92648631D01*
X107390566Y-92424003D01*
X107283342Y-92213566D01*
X107144517Y-92022490D01*
X106977510Y-91855483D01*
X106786433Y-91716657D01*
X106575996Y-91609433D01*
X106351368Y-91536446D01*
X106118097Y-91499500D01*
X106118092Y-91499500D01*
X105881908Y-91499500D01*
X105881903Y-91499500D01*
X105648631Y-91536446D01*
X105424003Y-91609433D01*
X105213566Y-91716657D01*
X105104550Y-91795862D01*
X105022490Y-91855483D01*
X105022488Y-91855485D01*
X105022487Y-91855485D01*
X104855485Y-92022487D01*
X104855485Y-92022488D01*
X104855483Y-92022490D01*
X104795862Y-92104550D01*
X104716657Y-92213566D01*
X104609433Y-92424003D01*
X104536446Y-92648631D01*
X104499500Y-92881902D01*
X64500500Y-92881902D01*
X64463553Y-92648631D01*
X64390566Y-92424003D01*
X64283342Y-92213566D01*
X64144517Y-92022490D01*
X63977510Y-91855483D01*
X63786433Y-91716657D01*
X63575996Y-91609433D01*
X63351368Y-91536446D01*
X63118097Y-91499500D01*
X63118092Y-91499500D01*
X62881908Y-91499500D01*
X62881903Y-91499500D01*
X62648631Y-91536446D01*
X62424003Y-91609433D01*
X62213566Y-91716657D01*
X62104550Y-91795862D01*
X62022490Y-91855483D01*
X62022488Y-91855485D01*
X62022487Y-91855485D01*
X61855485Y-92022487D01*
X61855485Y-92022488D01*
X61855483Y-92022490D01*
X61795862Y-92104550D01*
X61716657Y-92213566D01*
X61609433Y-92424003D01*
X61536446Y-92648631D01*
X61499500Y-92881902D01*
X60500500Y-92881902D01*
X60500500Y-90624500D01*
X60520185Y-90557461D01*
X60572989Y-90511706D01*
X60624500Y-90500500D01*
X108375500Y-90500500D01*
X108442539Y-90520185D01*
G37*
%TD.AperFunction*%
%TD*%
M02*
