%TF.GenerationSoftware,KiCad,Pcbnew,8.0.3*%
%TF.CreationDate,2024-07-07T00:38:38+02:00*%
%TF.ProjectId,tank_PCB,74616e6b-5f50-4434-922e-6b696361645f,rev?*%
%TF.SameCoordinates,Original*%
%TF.FileFunction,Copper,L2,Bot*%
%TF.FilePolarity,Positive*%
%FSLAX46Y46*%
G04 Gerber Fmt 4.6, Leading zero omitted, Abs format (unit mm)*
G04 Created by KiCad (PCBNEW 8.0.3) date 2024-07-07 00:38:38*
%MOMM*%
%LPD*%
G01*
G04 APERTURE LIST*
%TA.AperFunction,ComponentPad*%
%ADD10C,1.500000*%
%TD*%
%TA.AperFunction,ComponentPad*%
%ADD11R,1.500000X1.500000*%
%TD*%
%TA.AperFunction,ComponentPad*%
%ADD12R,1.700000X1.700000*%
%TD*%
%TA.AperFunction,ComponentPad*%
%ADD13O,1.700000X1.700000*%
%TD*%
%TA.AperFunction,ViaPad*%
%ADD14C,0.600000*%
%TD*%
%TA.AperFunction,Conductor*%
%ADD15C,0.200000*%
%TD*%
%TA.AperFunction,Conductor*%
%ADD16C,0.500000*%
%TD*%
G04 APERTURE END LIST*
D10*
%TO.P,J2,1,1*%
%TO.N,GND*%
X103400000Y-99050000D03*
%TO.P,J2,2,2*%
%TO.N,Net-(D2-A)*%
X98400000Y-102550000D03*
%TD*%
D11*
%TO.P,J3,1,1*%
%TO.N,Net-(J3-Pad1)*%
X98400000Y-146700000D03*
D10*
%TO.P,J3,2,2*%
%TO.N,+24V*%
X103400000Y-143200000D03*
%TO.P,J3,3,3*%
%TO.N,Net-(J3-Pad3)*%
X98400000Y-139700000D03*
%TO.P,J3,4,4*%
%TO.N,+24V*%
X103400000Y-136200000D03*
%TO.P,J3,5,5*%
%TO.N,Net-(J3-Pad5)*%
X98400000Y-132700000D03*
%TO.P,J3,6,6*%
%TO.N,+24V*%
X103400000Y-129200000D03*
%TO.P,J3,7,7*%
%TO.N,GND*%
X98400000Y-125700000D03*
%TO.P,J3,8,8*%
%TO.N,+24V*%
X103400000Y-122200000D03*
%TD*%
D12*
%TO.P,J1,1,Pin_1*%
%TO.N,+3.3V*%
X63000000Y-112260000D03*
D13*
%TO.P,J1,2,Pin_2*%
%TO.N,GND*%
X63000000Y-114800000D03*
%TO.P,J1,3,Pin_3*%
%TO.N,TFT_CS*%
X63000000Y-117340000D03*
%TO.P,J1,4,Pin_4*%
%TO.N,TFT_RST*%
X63000000Y-119880000D03*
%TO.P,J1,5,Pin_5*%
%TO.N,TFT_DC*%
X63000000Y-122420000D03*
%TO.P,J1,6,Pin_6*%
%TO.N,MOSI*%
X63000000Y-124960000D03*
%TO.P,J1,7,Pin_7*%
%TO.N,SCK*%
X63000000Y-127500000D03*
%TO.P,J1,8,Pin_8*%
%TO.N,BCK_LIGHT*%
X63000000Y-130040000D03*
%TO.P,J1,9,Pin_9*%
%TO.N,MISO*%
X63000000Y-132580000D03*
%TO.P,J1,10,Pin_10*%
%TO.N,SCK*%
X63000000Y-135120000D03*
%TO.P,J1,11,Pin_11*%
%TO.N,TOUCH_CS*%
X63000000Y-137660000D03*
%TO.P,J1,12,Pin_12*%
%TO.N,MOSI*%
X63000000Y-140200000D03*
%TO.P,J1,13,Pin_13*%
%TO.N,MISO*%
X63000000Y-142740000D03*
%TO.P,J1,14,Pin_14*%
%TO.N,TOUCH_IRQ*%
X63000000Y-145280000D03*
%TD*%
D14*
%TO.N,GND*%
X97000000Y-108000000D03*
X74800000Y-171600000D03*
X69000000Y-129000000D03*
X85000000Y-133000000D03*
X82000000Y-171600000D03*
X69000000Y-112000000D03*
X90000000Y-166000000D03*
X81000000Y-121000000D03*
X67000000Y-166000000D03*
X79000000Y-108000000D03*
X66000000Y-96000000D03*
X84000000Y-145000000D03*
X77200000Y-166000000D03*
X79000000Y-133000000D03*
%TO.N,SCL*%
X77800000Y-138300000D03*
X82000000Y-125700000D03*
%TO.N,+3.3V*%
X78800000Y-122600000D03*
X88000000Y-117800000D03*
X72600000Y-122600000D03*
%TO.N,SCK*%
X67400000Y-108400000D03*
X85025000Y-102550000D03*
%TO.N,BCK_LIGHT*%
X65700000Y-130050000D03*
X84400000Y-120000000D03*
%TO.N,MOSI*%
X86000000Y-101300000D03*
X66800000Y-105800000D03*
%TO.N,MISO*%
X65800000Y-142740000D03*
X65800000Y-132580000D03*
X85600000Y-120000000D03*
%TO.N,TOUCH_IRQ*%
X87200000Y-120000000D03*
X68400000Y-125800000D03*
%TO.N,VBUS*%
X76000000Y-170400000D03*
X80800000Y-170400000D03*
%TD*%
D15*
%TO.N,SCL*%
X78600000Y-125700000D02*
X77800000Y-126500000D01*
X82000000Y-125700000D02*
X78600000Y-125700000D01*
X77800000Y-126500000D02*
X77800000Y-138300000D01*
D16*
%TO.N,+3.3V*%
X66600000Y-122200000D02*
X67000000Y-122600000D01*
X83200000Y-117800000D02*
X88000000Y-117800000D01*
X78800000Y-122600000D02*
X82600000Y-122600000D01*
X66600000Y-113000000D02*
X66600000Y-122200000D01*
X63000000Y-112260000D02*
X65860000Y-112260000D01*
X83000000Y-122200000D02*
X83000000Y-118000000D01*
X65860000Y-112260000D02*
X66600000Y-113000000D01*
X82600000Y-122600000D02*
X83000000Y-122200000D01*
X83000000Y-118000000D02*
X83200000Y-117800000D01*
X67000000Y-122600000D02*
X72600000Y-122600000D01*
X72600000Y-122600000D02*
X78800000Y-122600000D01*
D15*
%TO.N,SCK*%
X73250000Y-102550000D02*
X67400000Y-108400000D01*
X85025000Y-102550000D02*
X73250000Y-102550000D01*
%TO.N,BCK_LIGHT*%
X84400000Y-120050000D02*
X84325000Y-120125000D01*
X84000000Y-124200000D02*
X66200000Y-124200000D01*
X84400000Y-120000000D02*
X84400000Y-123800000D01*
X66200000Y-124200000D02*
X65700000Y-124700000D01*
X84400000Y-123800000D02*
X84000000Y-124200000D01*
X84400000Y-120000000D02*
X84400000Y-120050000D01*
X65700000Y-124700000D02*
X65700000Y-130050000D01*
%TO.N,MOSI*%
X71300000Y-101300000D02*
X66800000Y-105800000D01*
X86000000Y-101300000D02*
X71300000Y-101300000D01*
%TO.N,MISO*%
X66675000Y-131705000D02*
X65800000Y-132580000D01*
X66675000Y-125125000D02*
X66675000Y-131705000D01*
X85600000Y-120000000D02*
X85600000Y-124400000D01*
X65800000Y-142740000D02*
X65800000Y-132580000D01*
X85400000Y-124600000D02*
X67200000Y-124600000D01*
X67200000Y-124600000D02*
X66675000Y-125125000D01*
X85600000Y-124400000D02*
X85400000Y-124600000D01*
%TO.N,TOUCH_IRQ*%
X69200000Y-125000000D02*
X68400000Y-125800000D01*
X87000000Y-125000000D02*
X69200000Y-125000000D01*
X87200000Y-124800000D02*
X87000000Y-125000000D01*
X87200000Y-120000000D02*
X87200000Y-124800000D01*
D16*
%TO.N,VBUS*%
X76000000Y-170400000D02*
X80800000Y-170400000D01*
%TD*%
%TA.AperFunction,Conductor*%
%TO.N,GND*%
G36*
X108442539Y-90520185D02*
G01*
X108488294Y-90572989D01*
X108499500Y-90624500D01*
X108499500Y-180375500D01*
X108479815Y-180442539D01*
X108427011Y-180488294D01*
X108375500Y-180499500D01*
X60624500Y-180499500D01*
X60557461Y-180479815D01*
X60511706Y-180427011D01*
X60500500Y-180375500D01*
X60500500Y-177881902D01*
X61499500Y-177881902D01*
X61499500Y-178118097D01*
X61536446Y-178351368D01*
X61609433Y-178575996D01*
X61716657Y-178786433D01*
X61855483Y-178977510D01*
X62022490Y-179144517D01*
X62213567Y-179283343D01*
X62312991Y-179334002D01*
X62424003Y-179390566D01*
X62424005Y-179390566D01*
X62424008Y-179390568D01*
X62544412Y-179429689D01*
X62648631Y-179463553D01*
X62881903Y-179500500D01*
X62881908Y-179500500D01*
X63118097Y-179500500D01*
X63351368Y-179463553D01*
X63575992Y-179390568D01*
X63786433Y-179283343D01*
X63977510Y-179144517D01*
X64144517Y-178977510D01*
X64283343Y-178786433D01*
X64390568Y-178575992D01*
X64463553Y-178351368D01*
X64500500Y-178118097D01*
X64500500Y-177881902D01*
X104499500Y-177881902D01*
X104499500Y-178118097D01*
X104536446Y-178351368D01*
X104609433Y-178575996D01*
X104716657Y-178786433D01*
X104855483Y-178977510D01*
X105022490Y-179144517D01*
X105213567Y-179283343D01*
X105312991Y-179334002D01*
X105424003Y-179390566D01*
X105424005Y-179390566D01*
X105424008Y-179390568D01*
X105544412Y-179429689D01*
X105648631Y-179463553D01*
X105881903Y-179500500D01*
X105881908Y-179500500D01*
X106118097Y-179500500D01*
X106351368Y-179463553D01*
X106575992Y-179390568D01*
X106786433Y-179283343D01*
X106977510Y-179144517D01*
X107144517Y-178977510D01*
X107283343Y-178786433D01*
X107390568Y-178575992D01*
X107463553Y-178351368D01*
X107500500Y-178118097D01*
X107500500Y-177881902D01*
X107463553Y-177648631D01*
X107390566Y-177424003D01*
X107283342Y-177213566D01*
X107144517Y-177022490D01*
X106977510Y-176855483D01*
X106786433Y-176716657D01*
X106575996Y-176609433D01*
X106351368Y-176536446D01*
X106118097Y-176499500D01*
X106118092Y-176499500D01*
X105881908Y-176499500D01*
X105881903Y-176499500D01*
X105648631Y-176536446D01*
X105424003Y-176609433D01*
X105213566Y-176716657D01*
X105104550Y-176795862D01*
X105022490Y-176855483D01*
X105022488Y-176855485D01*
X105022487Y-176855485D01*
X104855485Y-177022487D01*
X104855485Y-177022488D01*
X104855483Y-177022490D01*
X104795862Y-177104550D01*
X104716657Y-177213566D01*
X104609433Y-177424003D01*
X104536446Y-177648631D01*
X104499500Y-177881902D01*
X64500500Y-177881902D01*
X64463553Y-177648631D01*
X64390566Y-177424003D01*
X64283342Y-177213566D01*
X64144517Y-177022490D01*
X63977510Y-176855483D01*
X63786433Y-176716657D01*
X63575996Y-176609433D01*
X63351368Y-176536446D01*
X63118097Y-176499500D01*
X63118092Y-176499500D01*
X62881908Y-176499500D01*
X62881903Y-176499500D01*
X62648631Y-176536446D01*
X62424003Y-176609433D01*
X62213566Y-176716657D01*
X62104550Y-176795862D01*
X62022490Y-176855483D01*
X62022488Y-176855485D01*
X62022487Y-176855485D01*
X61855485Y-177022487D01*
X61855485Y-177022488D01*
X61855483Y-177022490D01*
X61795862Y-177104550D01*
X61716657Y-177213566D01*
X61609433Y-177424003D01*
X61536446Y-177648631D01*
X61499500Y-177881902D01*
X60500500Y-177881902D01*
X60500500Y-174494234D01*
X74934500Y-174494234D01*
X74934500Y-174645765D01*
X74973719Y-174792136D01*
X75011602Y-174857750D01*
X75049485Y-174923365D01*
X75156635Y-175030515D01*
X75287865Y-175106281D01*
X75434234Y-175145500D01*
X75434236Y-175145500D01*
X75585764Y-175145500D01*
X75585766Y-175145500D01*
X75732135Y-175106281D01*
X75863365Y-175030515D01*
X75970515Y-174923365D01*
X76046281Y-174792135D01*
X76085500Y-174645766D01*
X76085500Y-174494234D01*
X80714500Y-174494234D01*
X80714500Y-174645765D01*
X80753719Y-174792136D01*
X80791602Y-174857750D01*
X80829485Y-174923365D01*
X80936635Y-175030515D01*
X81067865Y-175106281D01*
X81214234Y-175145500D01*
X81214236Y-175145500D01*
X81365764Y-175145500D01*
X81365766Y-175145500D01*
X81512135Y-175106281D01*
X81643365Y-175030515D01*
X81750515Y-174923365D01*
X81826281Y-174792135D01*
X81865500Y-174645766D01*
X81865500Y-174494234D01*
X81826281Y-174347865D01*
X81750515Y-174216635D01*
X81643365Y-174109485D01*
X81577750Y-174071602D01*
X81512136Y-174033719D01*
X81438950Y-174014109D01*
X81365766Y-173994500D01*
X81214234Y-173994500D01*
X81067863Y-174033719D01*
X80936635Y-174109485D01*
X80936632Y-174109487D01*
X80829487Y-174216632D01*
X80829485Y-174216635D01*
X80753719Y-174347863D01*
X80714500Y-174494234D01*
X76085500Y-174494234D01*
X76046281Y-174347865D01*
X75970515Y-174216635D01*
X75863365Y-174109485D01*
X75797750Y-174071602D01*
X75732136Y-174033719D01*
X75658950Y-174014109D01*
X75585766Y-173994500D01*
X75434234Y-173994500D01*
X75287863Y-174033719D01*
X75156635Y-174109485D01*
X75156632Y-174109487D01*
X75049487Y-174216632D01*
X75049485Y-174216635D01*
X74973719Y-174347863D01*
X74934500Y-174494234D01*
X60500500Y-174494234D01*
X60500500Y-170399996D01*
X75194435Y-170399996D01*
X75194435Y-170400003D01*
X75214630Y-170579249D01*
X75214631Y-170579254D01*
X75274211Y-170749523D01*
X75370184Y-170902262D01*
X75497738Y-171029816D01*
X75650478Y-171125789D01*
X75721098Y-171150500D01*
X75820745Y-171185368D01*
X75820750Y-171185369D01*
X75999996Y-171205565D01*
X76000000Y-171205565D01*
X76000004Y-171205565D01*
X76179249Y-171185369D01*
X76179252Y-171185368D01*
X76179255Y-171185368D01*
X76259017Y-171157457D01*
X76299972Y-171150500D01*
X80500028Y-171150500D01*
X80540983Y-171157458D01*
X80620745Y-171185368D01*
X80620750Y-171185369D01*
X80799996Y-171205565D01*
X80800000Y-171205565D01*
X80800004Y-171205565D01*
X80979249Y-171185369D01*
X80979252Y-171185368D01*
X80979255Y-171185368D01*
X81149522Y-171125789D01*
X81302262Y-171029816D01*
X81429816Y-170902262D01*
X81525789Y-170749522D01*
X81585368Y-170579255D01*
X81605565Y-170400000D01*
X81585368Y-170220745D01*
X81525789Y-170050478D01*
X81429816Y-169897738D01*
X81302262Y-169770184D01*
X81149523Y-169674211D01*
X80979254Y-169614631D01*
X80979249Y-169614630D01*
X80800004Y-169594435D01*
X80799996Y-169594435D01*
X80620750Y-169614630D01*
X80620745Y-169614631D01*
X80540983Y-169642542D01*
X80500028Y-169649500D01*
X76299972Y-169649500D01*
X76259017Y-169642542D01*
X76179254Y-169614631D01*
X76179249Y-169614630D01*
X76000004Y-169594435D01*
X75999996Y-169594435D01*
X75820750Y-169614630D01*
X75820745Y-169614631D01*
X75650476Y-169674211D01*
X75497737Y-169770184D01*
X75370184Y-169897737D01*
X75274211Y-170050476D01*
X75214631Y-170220745D01*
X75214630Y-170220750D01*
X75194435Y-170399996D01*
X60500500Y-170399996D01*
X60500500Y-117339999D01*
X61644341Y-117339999D01*
X61644341Y-117340000D01*
X61664936Y-117575403D01*
X61664938Y-117575413D01*
X61726094Y-117803655D01*
X61726096Y-117803659D01*
X61726097Y-117803663D01*
X61783181Y-117926079D01*
X61825965Y-118017830D01*
X61825967Y-118017834D01*
X61961501Y-118211395D01*
X61961506Y-118211402D01*
X62128597Y-118378493D01*
X62128603Y-118378498D01*
X62314158Y-118508425D01*
X62357783Y-118563002D01*
X62364977Y-118632500D01*
X62333454Y-118694855D01*
X62314158Y-118711575D01*
X62128597Y-118841505D01*
X61961505Y-119008597D01*
X61825965Y-119202169D01*
X61825964Y-119202171D01*
X61726098Y-119416335D01*
X61726094Y-119416344D01*
X61664938Y-119644586D01*
X61664936Y-119644596D01*
X61644341Y-119879999D01*
X61644341Y-119880000D01*
X61664936Y-120115403D01*
X61664938Y-120115413D01*
X61726094Y-120343655D01*
X61726096Y-120343659D01*
X61726097Y-120343663D01*
X61825965Y-120557830D01*
X61825967Y-120557834D01*
X61961501Y-120751395D01*
X61961506Y-120751402D01*
X62128597Y-120918493D01*
X62128603Y-120918498D01*
X62314158Y-121048425D01*
X62357783Y-121103002D01*
X62364977Y-121172500D01*
X62333454Y-121234855D01*
X62314158Y-121251575D01*
X62128597Y-121381505D01*
X61961505Y-121548597D01*
X61825965Y-121742169D01*
X61825964Y-121742171D01*
X61726098Y-121956335D01*
X61726094Y-121956344D01*
X61664938Y-122184586D01*
X61664936Y-122184596D01*
X61644341Y-122419999D01*
X61644341Y-122420000D01*
X61664936Y-122655403D01*
X61664938Y-122655413D01*
X61726094Y-122883655D01*
X61726096Y-122883659D01*
X61726097Y-122883663D01*
X61783553Y-123006877D01*
X61825965Y-123097830D01*
X61825967Y-123097834D01*
X61961501Y-123291395D01*
X61961506Y-123291402D01*
X62128597Y-123458493D01*
X62128603Y-123458498D01*
X62314158Y-123588425D01*
X62357783Y-123643002D01*
X62364977Y-123712500D01*
X62333454Y-123774855D01*
X62314158Y-123791575D01*
X62128597Y-123921505D01*
X61961505Y-124088597D01*
X61825965Y-124282169D01*
X61825964Y-124282171D01*
X61726098Y-124496335D01*
X61726094Y-124496344D01*
X61664938Y-124724586D01*
X61664936Y-124724596D01*
X61644341Y-124959999D01*
X61644341Y-124960000D01*
X61664936Y-125195403D01*
X61664938Y-125195413D01*
X61726094Y-125423655D01*
X61726096Y-125423659D01*
X61726097Y-125423663D01*
X61789475Y-125559577D01*
X61825965Y-125637830D01*
X61825967Y-125637834D01*
X61961501Y-125831395D01*
X61961506Y-125831402D01*
X62128597Y-125998493D01*
X62128603Y-125998498D01*
X62314158Y-126128425D01*
X62357783Y-126183002D01*
X62364977Y-126252500D01*
X62333454Y-126314855D01*
X62314158Y-126331575D01*
X62128597Y-126461505D01*
X61961505Y-126628597D01*
X61825965Y-126822169D01*
X61825964Y-126822171D01*
X61726098Y-127036335D01*
X61726094Y-127036344D01*
X61664938Y-127264586D01*
X61664936Y-127264596D01*
X61644341Y-127499999D01*
X61644341Y-127500000D01*
X61664936Y-127735403D01*
X61664938Y-127735413D01*
X61726094Y-127963655D01*
X61726096Y-127963659D01*
X61726097Y-127963663D01*
X61752566Y-128020425D01*
X61825965Y-128177830D01*
X61825967Y-128177834D01*
X61961501Y-128371395D01*
X61961506Y-128371402D01*
X62128597Y-128538493D01*
X62128603Y-128538498D01*
X62314158Y-128668425D01*
X62357783Y-128723002D01*
X62364977Y-128792500D01*
X62333454Y-128854855D01*
X62314158Y-128871575D01*
X62128597Y-129001505D01*
X61961505Y-129168597D01*
X61825965Y-129362169D01*
X61825964Y-129362171D01*
X61726098Y-129576335D01*
X61726094Y-129576344D01*
X61664938Y-129804586D01*
X61664936Y-129804596D01*
X61644341Y-130039999D01*
X61644341Y-130040000D01*
X61664936Y-130275403D01*
X61664938Y-130275413D01*
X61726094Y-130503655D01*
X61726096Y-130503659D01*
X61726097Y-130503663D01*
X61808238Y-130679815D01*
X61825965Y-130717830D01*
X61825967Y-130717834D01*
X61961501Y-130911395D01*
X61961506Y-130911402D01*
X62128597Y-131078493D01*
X62128603Y-131078498D01*
X62314158Y-131208425D01*
X62357783Y-131263002D01*
X62364977Y-131332500D01*
X62333454Y-131394855D01*
X62314158Y-131411575D01*
X62128597Y-131541505D01*
X61961505Y-131708597D01*
X61825965Y-131902169D01*
X61825964Y-131902171D01*
X61726098Y-132116335D01*
X61726094Y-132116344D01*
X61664938Y-132344586D01*
X61664936Y-132344596D01*
X61644341Y-132579999D01*
X61644341Y-132580000D01*
X61664936Y-132815403D01*
X61664938Y-132815413D01*
X61726094Y-133043655D01*
X61726096Y-133043659D01*
X61726097Y-133043663D01*
X61766045Y-133129331D01*
X61825965Y-133257830D01*
X61825967Y-133257834D01*
X61961501Y-133451395D01*
X61961506Y-133451402D01*
X62128597Y-133618493D01*
X62128603Y-133618498D01*
X62314158Y-133748425D01*
X62357783Y-133803002D01*
X62364977Y-133872500D01*
X62333454Y-133934855D01*
X62314158Y-133951575D01*
X62128597Y-134081505D01*
X61961505Y-134248597D01*
X61825965Y-134442169D01*
X61825964Y-134442171D01*
X61726098Y-134656335D01*
X61726094Y-134656344D01*
X61664938Y-134884586D01*
X61664936Y-134884596D01*
X61644341Y-135119999D01*
X61644341Y-135120000D01*
X61664936Y-135355403D01*
X61664938Y-135355413D01*
X61726094Y-135583655D01*
X61726096Y-135583659D01*
X61726097Y-135583663D01*
X61813299Y-135770668D01*
X61825965Y-135797830D01*
X61825967Y-135797834D01*
X61934281Y-135952521D01*
X61954938Y-135982023D01*
X61961501Y-135991395D01*
X61961506Y-135991402D01*
X62128597Y-136158493D01*
X62128603Y-136158498D01*
X62314158Y-136288425D01*
X62357783Y-136343002D01*
X62364977Y-136412500D01*
X62333454Y-136474855D01*
X62314158Y-136491575D01*
X62128597Y-136621505D01*
X61961505Y-136788597D01*
X61825965Y-136982169D01*
X61825964Y-136982171D01*
X61726098Y-137196335D01*
X61726094Y-137196344D01*
X61664938Y-137424586D01*
X61664936Y-137424596D01*
X61644341Y-137659999D01*
X61644341Y-137660000D01*
X61664936Y-137895403D01*
X61664938Y-137895413D01*
X61726094Y-138123655D01*
X61726096Y-138123659D01*
X61726097Y-138123663D01*
X61808323Y-138299996D01*
X61825965Y-138337830D01*
X61825967Y-138337834D01*
X61900812Y-138444723D01*
X61953817Y-138520422D01*
X61961501Y-138531395D01*
X61961506Y-138531402D01*
X62128597Y-138698493D01*
X62128603Y-138698498D01*
X62314158Y-138828425D01*
X62357783Y-138883002D01*
X62364977Y-138952500D01*
X62333454Y-139014855D01*
X62314158Y-139031575D01*
X62128597Y-139161505D01*
X61961505Y-139328597D01*
X61825965Y-139522169D01*
X61825964Y-139522171D01*
X61726098Y-139736335D01*
X61726094Y-139736344D01*
X61664938Y-139964586D01*
X61664936Y-139964596D01*
X61644341Y-140199999D01*
X61644341Y-140200000D01*
X61664936Y-140435403D01*
X61664938Y-140435413D01*
X61726094Y-140663655D01*
X61726096Y-140663659D01*
X61726097Y-140663663D01*
X61783658Y-140787102D01*
X61825965Y-140877830D01*
X61825967Y-140877834D01*
X61961501Y-141071395D01*
X61961506Y-141071402D01*
X62128597Y-141238493D01*
X62128603Y-141238498D01*
X62314158Y-141368425D01*
X62357783Y-141423002D01*
X62364977Y-141492500D01*
X62333454Y-141554855D01*
X62314158Y-141571575D01*
X62128597Y-141701505D01*
X61961505Y-141868597D01*
X61825965Y-142062169D01*
X61825964Y-142062171D01*
X61726098Y-142276335D01*
X61726094Y-142276344D01*
X61664938Y-142504586D01*
X61664936Y-142504596D01*
X61644341Y-142739999D01*
X61644341Y-142740000D01*
X61664936Y-142975403D01*
X61664938Y-142975413D01*
X61726094Y-143203655D01*
X61726096Y-143203659D01*
X61726097Y-143203663D01*
X61744096Y-143242262D01*
X61825965Y-143417830D01*
X61825967Y-143417834D01*
X61961501Y-143611395D01*
X61961506Y-143611402D01*
X62128597Y-143778493D01*
X62128603Y-143778498D01*
X62314158Y-143908425D01*
X62357783Y-143963002D01*
X62364977Y-144032500D01*
X62333454Y-144094855D01*
X62314158Y-144111575D01*
X62128597Y-144241505D01*
X61961505Y-144408597D01*
X61825965Y-144602169D01*
X61825964Y-144602171D01*
X61726098Y-144816335D01*
X61726094Y-144816344D01*
X61664938Y-145044586D01*
X61664936Y-145044596D01*
X61644341Y-145279999D01*
X61644341Y-145280000D01*
X61664936Y-145515403D01*
X61664938Y-145515413D01*
X61726094Y-145743655D01*
X61726096Y-145743659D01*
X61726097Y-145743663D01*
X61772193Y-145842516D01*
X61825965Y-145957830D01*
X61825967Y-145957834D01*
X61934281Y-146112521D01*
X61961505Y-146151401D01*
X62128599Y-146318495D01*
X62225384Y-146386265D01*
X62322165Y-146454032D01*
X62322167Y-146454033D01*
X62322170Y-146454035D01*
X62536337Y-146553903D01*
X62764592Y-146615063D01*
X62952918Y-146631539D01*
X62999999Y-146635659D01*
X63000000Y-146635659D01*
X63000001Y-146635659D01*
X63039234Y-146632226D01*
X63235408Y-146615063D01*
X63463663Y-146553903D01*
X63677830Y-146454035D01*
X63871401Y-146318495D01*
X64038495Y-146151401D01*
X64174035Y-145957830D01*
X64200006Y-145902135D01*
X97149500Y-145902135D01*
X97149500Y-147497870D01*
X97149501Y-147497876D01*
X97155908Y-147557483D01*
X97206202Y-147692328D01*
X97206206Y-147692335D01*
X97292452Y-147807544D01*
X97292455Y-147807547D01*
X97407664Y-147893793D01*
X97407671Y-147893797D01*
X97542517Y-147944091D01*
X97542516Y-147944091D01*
X97549444Y-147944835D01*
X97602127Y-147950500D01*
X99197872Y-147950499D01*
X99257483Y-147944091D01*
X99392331Y-147893796D01*
X99507546Y-147807546D01*
X99593796Y-147692331D01*
X99644091Y-147557483D01*
X99650500Y-147497873D01*
X99650499Y-145902128D01*
X99644091Y-145842517D01*
X99607221Y-145743664D01*
X99593797Y-145707671D01*
X99593793Y-145707664D01*
X99507547Y-145592455D01*
X99507544Y-145592452D01*
X99392335Y-145506206D01*
X99392328Y-145506202D01*
X99257482Y-145455908D01*
X99257483Y-145455908D01*
X99197883Y-145449501D01*
X99197881Y-145449500D01*
X99197873Y-145449500D01*
X99197864Y-145449500D01*
X97602129Y-145449500D01*
X97602123Y-145449501D01*
X97542516Y-145455908D01*
X97407671Y-145506202D01*
X97407664Y-145506206D01*
X97292455Y-145592452D01*
X97292452Y-145592455D01*
X97206206Y-145707664D01*
X97206202Y-145707671D01*
X97155908Y-145842517D01*
X97149501Y-145902116D01*
X97149501Y-145902123D01*
X97149500Y-145902135D01*
X64200006Y-145902135D01*
X64273903Y-145743663D01*
X64335063Y-145515408D01*
X64355659Y-145280000D01*
X64335063Y-145044592D01*
X64273903Y-144816337D01*
X64174035Y-144602171D01*
X64071180Y-144455277D01*
X64038494Y-144408597D01*
X63871402Y-144241506D01*
X63871396Y-144241501D01*
X63685842Y-144111575D01*
X63642217Y-144056998D01*
X63635023Y-143987500D01*
X63666546Y-143925145D01*
X63685842Y-143908425D01*
X63801216Y-143827639D01*
X63871401Y-143778495D01*
X64038495Y-143611401D01*
X64174035Y-143417830D01*
X64273903Y-143203663D01*
X64335063Y-142975408D01*
X64355659Y-142740000D01*
X64335063Y-142504592D01*
X64273903Y-142276337D01*
X64174035Y-142062171D01*
X64144805Y-142020425D01*
X64038494Y-141868597D01*
X63871402Y-141701506D01*
X63871396Y-141701501D01*
X63685842Y-141571575D01*
X63642217Y-141516998D01*
X63635023Y-141447500D01*
X63666546Y-141385145D01*
X63685842Y-141368425D01*
X63708026Y-141352891D01*
X63871401Y-141238495D01*
X64038495Y-141071401D01*
X64174035Y-140877830D01*
X64273903Y-140663663D01*
X64335063Y-140435408D01*
X64355659Y-140200000D01*
X64335063Y-139964592D01*
X64273903Y-139736337D01*
X64174035Y-139522171D01*
X64145924Y-139482023D01*
X64038494Y-139328597D01*
X63871402Y-139161506D01*
X63871396Y-139161501D01*
X63685842Y-139031575D01*
X63642217Y-138976998D01*
X63635023Y-138907500D01*
X63666546Y-138845145D01*
X63685842Y-138828425D01*
X63708026Y-138812891D01*
X63871401Y-138698495D01*
X64038495Y-138531401D01*
X64174035Y-138337830D01*
X64273903Y-138123663D01*
X64335063Y-137895408D01*
X64355659Y-137660000D01*
X64335063Y-137424592D01*
X64273903Y-137196337D01*
X64174035Y-136982171D01*
X64065831Y-136827638D01*
X64038494Y-136788597D01*
X63871402Y-136621506D01*
X63871396Y-136621501D01*
X63685842Y-136491575D01*
X63642217Y-136436998D01*
X63635023Y-136367500D01*
X63666546Y-136305145D01*
X63685842Y-136288425D01*
X63708026Y-136272891D01*
X63871401Y-136158495D01*
X64038495Y-135991401D01*
X64174035Y-135797830D01*
X64273903Y-135583663D01*
X64335063Y-135355408D01*
X64355659Y-135120000D01*
X64335063Y-134884592D01*
X64273903Y-134656337D01*
X64174035Y-134442171D01*
X64038495Y-134248599D01*
X64038494Y-134248597D01*
X63871402Y-134081506D01*
X63871396Y-134081501D01*
X63685842Y-133951575D01*
X63642217Y-133896998D01*
X63635023Y-133827500D01*
X63666546Y-133765145D01*
X63685842Y-133748425D01*
X63708026Y-133732891D01*
X63871401Y-133618495D01*
X64038495Y-133451401D01*
X64174035Y-133257830D01*
X64273903Y-133043663D01*
X64335063Y-132815408D01*
X64355659Y-132580000D01*
X64335063Y-132344592D01*
X64273903Y-132116337D01*
X64174035Y-131902171D01*
X64167701Y-131893124D01*
X64038494Y-131708597D01*
X63871402Y-131541506D01*
X63871396Y-131541501D01*
X63685842Y-131411575D01*
X63642217Y-131356998D01*
X63635023Y-131287500D01*
X63666546Y-131225145D01*
X63685842Y-131208425D01*
X63708026Y-131192891D01*
X63871401Y-131078495D01*
X64038495Y-130911401D01*
X64174035Y-130717830D01*
X64273903Y-130503663D01*
X64335063Y-130275408D01*
X64355659Y-130040000D01*
X64335063Y-129804592D01*
X64273903Y-129576337D01*
X64174035Y-129362171D01*
X64060483Y-129200000D01*
X64038494Y-129168597D01*
X63871402Y-129001506D01*
X63871396Y-129001501D01*
X63685842Y-128871575D01*
X63642217Y-128816998D01*
X63635023Y-128747500D01*
X63666546Y-128685145D01*
X63685842Y-128668425D01*
X63708026Y-128652891D01*
X63871401Y-128538495D01*
X64038495Y-128371401D01*
X64174035Y-128177830D01*
X64273903Y-127963663D01*
X64335063Y-127735408D01*
X64355659Y-127500000D01*
X64335063Y-127264592D01*
X64273903Y-127036337D01*
X64174035Y-126822171D01*
X64149177Y-126786669D01*
X64038494Y-126628597D01*
X63871402Y-126461506D01*
X63871396Y-126461501D01*
X63685842Y-126331575D01*
X63642217Y-126276998D01*
X63635023Y-126207500D01*
X63666546Y-126145145D01*
X63685842Y-126128425D01*
X63792770Y-126053553D01*
X63871401Y-125998495D01*
X64038495Y-125831401D01*
X64174035Y-125637830D01*
X64273903Y-125423663D01*
X64335063Y-125195408D01*
X64355659Y-124960000D01*
X64335063Y-124724592D01*
X64273903Y-124496337D01*
X64174035Y-124282171D01*
X64135089Y-124226549D01*
X64038494Y-124088597D01*
X63871402Y-123921506D01*
X63871396Y-123921501D01*
X63685842Y-123791575D01*
X63642217Y-123736998D01*
X63635023Y-123667500D01*
X63666546Y-123605145D01*
X63685842Y-123588425D01*
X63847115Y-123475500D01*
X63871401Y-123458495D01*
X64038495Y-123291401D01*
X64174035Y-123097830D01*
X64273903Y-122883663D01*
X64335063Y-122655408D01*
X64355659Y-122420000D01*
X64335063Y-122184592D01*
X64280786Y-121982024D01*
X64273905Y-121956344D01*
X64273904Y-121956343D01*
X64273903Y-121956337D01*
X64174035Y-121742171D01*
X64055134Y-121572361D01*
X64038494Y-121548597D01*
X63871402Y-121381506D01*
X63871396Y-121381501D01*
X63685842Y-121251575D01*
X63642217Y-121196998D01*
X63635023Y-121127500D01*
X63666546Y-121065145D01*
X63685842Y-121048425D01*
X63725834Y-121020422D01*
X63871401Y-120918495D01*
X64038495Y-120751401D01*
X64174035Y-120557830D01*
X64273903Y-120343663D01*
X64335063Y-120115408D01*
X64355659Y-119880000D01*
X64335063Y-119644592D01*
X64273903Y-119416337D01*
X64174035Y-119202171D01*
X64168619Y-119194435D01*
X64038494Y-119008597D01*
X63871402Y-118841506D01*
X63871396Y-118841501D01*
X63685842Y-118711575D01*
X63642217Y-118656998D01*
X63635023Y-118587500D01*
X63666546Y-118525145D01*
X63685842Y-118508425D01*
X63798107Y-118429816D01*
X63871401Y-118378495D01*
X64038495Y-118211401D01*
X64174035Y-118017830D01*
X64273903Y-117803663D01*
X64335063Y-117575408D01*
X64355659Y-117340000D01*
X64335063Y-117104592D01*
X64273903Y-116876337D01*
X64174035Y-116662171D01*
X64038495Y-116468599D01*
X64038494Y-116468597D01*
X63871402Y-116301506D01*
X63871401Y-116301505D01*
X63685405Y-116171269D01*
X63641781Y-116116692D01*
X63634588Y-116047193D01*
X63666110Y-115984839D01*
X63685405Y-115968119D01*
X63871082Y-115838105D01*
X64038105Y-115671082D01*
X64173600Y-115477578D01*
X64273429Y-115263492D01*
X64273432Y-115263486D01*
X64330636Y-115050000D01*
X63433012Y-115050000D01*
X63465925Y-114992993D01*
X63500000Y-114865826D01*
X63500000Y-114734174D01*
X63465925Y-114607007D01*
X63433012Y-114550000D01*
X64330636Y-114550000D01*
X64330635Y-114549999D01*
X64273432Y-114336513D01*
X64273429Y-114336507D01*
X64173600Y-114122422D01*
X64173599Y-114122420D01*
X64038113Y-113928926D01*
X64038108Y-113928920D01*
X63916053Y-113806865D01*
X63882568Y-113745542D01*
X63887552Y-113675850D01*
X63929424Y-113619917D01*
X63960400Y-113603002D01*
X64092331Y-113553796D01*
X64207546Y-113467546D01*
X64293796Y-113352331D01*
X64344091Y-113217483D01*
X64350500Y-113157873D01*
X64350500Y-113134500D01*
X64370185Y-113067461D01*
X64422989Y-113021706D01*
X64474500Y-113010500D01*
X65497770Y-113010500D01*
X65564809Y-113030185D01*
X65585451Y-113046819D01*
X65813181Y-113274549D01*
X65846666Y-113335872D01*
X65849500Y-113362230D01*
X65849500Y-122273918D01*
X65849500Y-122273920D01*
X65849499Y-122273920D01*
X65878340Y-122418907D01*
X65878343Y-122418917D01*
X65878792Y-122420000D01*
X65934916Y-122555495D01*
X65954828Y-122585296D01*
X65964652Y-122599999D01*
X66017049Y-122678418D01*
X66017052Y-122678421D01*
X66345510Y-123006877D01*
X66417048Y-123078415D01*
X66417049Y-123078416D01*
X66500226Y-123161593D01*
X66521585Y-123182952D01*
X66644498Y-123265080D01*
X66644511Y-123265087D01*
X66708042Y-123291402D01*
X66781087Y-123321658D01*
X66781091Y-123321658D01*
X66781092Y-123321659D01*
X66926079Y-123350500D01*
X66926082Y-123350500D01*
X72300028Y-123350500D01*
X72340981Y-123357458D01*
X72343839Y-123358458D01*
X72400615Y-123399178D01*
X72426364Y-123464131D01*
X72412909Y-123532693D01*
X72364522Y-123583096D01*
X72302886Y-123599500D01*
X66286670Y-123599500D01*
X66286654Y-123599499D01*
X66279058Y-123599499D01*
X66120943Y-123599499D01*
X66044579Y-123619961D01*
X65968214Y-123640423D01*
X65968209Y-123640426D01*
X65831290Y-123719475D01*
X65831282Y-123719481D01*
X65324217Y-124226546D01*
X65324214Y-124226548D01*
X65324215Y-124226549D01*
X65219478Y-124331286D01*
X65169361Y-124418094D01*
X65169359Y-124418096D01*
X65140425Y-124468209D01*
X65140424Y-124468210D01*
X65132886Y-124496344D01*
X65099499Y-124620943D01*
X65099499Y-124620945D01*
X65099499Y-124789046D01*
X65099500Y-124789059D01*
X65099500Y-129467587D01*
X65079815Y-129534626D01*
X65072450Y-129544896D01*
X65070186Y-129547734D01*
X64974211Y-129700476D01*
X64914631Y-129870745D01*
X64914630Y-129870750D01*
X64894435Y-130049996D01*
X64894435Y-130050003D01*
X64914630Y-130229249D01*
X64914631Y-130229254D01*
X64974211Y-130399523D01*
X65009244Y-130455277D01*
X65070184Y-130552262D01*
X65197738Y-130679816D01*
X65258237Y-130717830D01*
X65325499Y-130760094D01*
X65350478Y-130775789D01*
X65490458Y-130824770D01*
X65520745Y-130835368D01*
X65520750Y-130835369D01*
X65699996Y-130855565D01*
X65700000Y-130855565D01*
X65700004Y-130855565D01*
X65879249Y-130835369D01*
X65879251Y-130835368D01*
X65879255Y-130835368D01*
X65909542Y-130824769D01*
X65979321Y-130821206D01*
X66039949Y-130855933D01*
X66072178Y-130917926D01*
X66074500Y-130941810D01*
X66074500Y-131404902D01*
X66054815Y-131471941D01*
X66038181Y-131492583D01*
X65781465Y-131749298D01*
X65720142Y-131782783D01*
X65707668Y-131784837D01*
X65620750Y-131794630D01*
X65450478Y-131854210D01*
X65297737Y-131950184D01*
X65170184Y-132077737D01*
X65074211Y-132230476D01*
X65014631Y-132400745D01*
X65014630Y-132400750D01*
X64994435Y-132579996D01*
X64994435Y-132580003D01*
X65014630Y-132759249D01*
X65014631Y-132759254D01*
X65074211Y-132929523D01*
X65170185Y-133082263D01*
X65172445Y-133085097D01*
X65173334Y-133087275D01*
X65173889Y-133088158D01*
X65173734Y-133088255D01*
X65198855Y-133149783D01*
X65199500Y-133162412D01*
X65199500Y-142157587D01*
X65179815Y-142224626D01*
X65172450Y-142234896D01*
X65170186Y-142237734D01*
X65074211Y-142390476D01*
X65014631Y-142560745D01*
X65014630Y-142560750D01*
X64994435Y-142739996D01*
X64994435Y-142740003D01*
X65014630Y-142919249D01*
X65014631Y-142919254D01*
X65074211Y-143089523D01*
X65145931Y-143203664D01*
X65170184Y-143242262D01*
X65297738Y-143369816D01*
X65450478Y-143465789D01*
X65620745Y-143525368D01*
X65620750Y-143525369D01*
X65799996Y-143545565D01*
X65800000Y-143545565D01*
X65800004Y-143545565D01*
X65979249Y-143525369D01*
X65979252Y-143525368D01*
X65979255Y-143525368D01*
X66149522Y-143465789D01*
X66302262Y-143369816D01*
X66429816Y-143242262D01*
X66456373Y-143199997D01*
X102144723Y-143199997D01*
X102144723Y-143200002D01*
X102148420Y-143242262D01*
X102163780Y-143417834D01*
X102163793Y-143417975D01*
X102163793Y-143417979D01*
X102220422Y-143629322D01*
X102220424Y-143629326D01*
X102220425Y-143629330D01*
X102266661Y-143728484D01*
X102312897Y-143827638D01*
X102312898Y-143827639D01*
X102438402Y-144006877D01*
X102593123Y-144161598D01*
X102772361Y-144287102D01*
X102970670Y-144379575D01*
X103182023Y-144436207D01*
X103364926Y-144452208D01*
X103399998Y-144455277D01*
X103400000Y-144455277D01*
X103400002Y-144455277D01*
X103428254Y-144452805D01*
X103617977Y-144436207D01*
X103829330Y-144379575D01*
X104027639Y-144287102D01*
X104206877Y-144161598D01*
X104361598Y-144006877D01*
X104487102Y-143827639D01*
X104579575Y-143629330D01*
X104636207Y-143417977D01*
X104652805Y-143228254D01*
X104655277Y-143200002D01*
X104655277Y-143199997D01*
X104651569Y-143157618D01*
X104636207Y-142982023D01*
X104579575Y-142770670D01*
X104487102Y-142572362D01*
X104487100Y-142572359D01*
X104487099Y-142572357D01*
X104361599Y-142393124D01*
X104358951Y-142390476D01*
X104206877Y-142238402D01*
X104027639Y-142112898D01*
X104027640Y-142112898D01*
X104027638Y-142112897D01*
X103928484Y-142066661D01*
X103829330Y-142020425D01*
X103829326Y-142020424D01*
X103829322Y-142020422D01*
X103617977Y-141963793D01*
X103400002Y-141944723D01*
X103399998Y-141944723D01*
X103254682Y-141957436D01*
X103182023Y-141963793D01*
X103182020Y-141963793D01*
X102970677Y-142020422D01*
X102970668Y-142020426D01*
X102772361Y-142112898D01*
X102772357Y-142112900D01*
X102593121Y-142238402D01*
X102438402Y-142393121D01*
X102312900Y-142572357D01*
X102312898Y-142572361D01*
X102220426Y-142770668D01*
X102220422Y-142770677D01*
X102163793Y-142982020D01*
X102163793Y-142982024D01*
X102144723Y-143199997D01*
X66456373Y-143199997D01*
X66525789Y-143089522D01*
X66585368Y-142919255D01*
X66602109Y-142770677D01*
X66605565Y-142740003D01*
X66605565Y-142739996D01*
X66585369Y-142560750D01*
X66585368Y-142560745D01*
X66526715Y-142393124D01*
X66525789Y-142390478D01*
X66429816Y-142237738D01*
X66429814Y-142237736D01*
X66429813Y-142237734D01*
X66427550Y-142234896D01*
X66426659Y-142232715D01*
X66426111Y-142231842D01*
X66426264Y-142231745D01*
X66401144Y-142170209D01*
X66400500Y-142157587D01*
X66400500Y-139699997D01*
X97144723Y-139699997D01*
X97144723Y-139700002D01*
X97163793Y-139917975D01*
X97163793Y-139917979D01*
X97220422Y-140129322D01*
X97220424Y-140129326D01*
X97220425Y-140129330D01*
X97253379Y-140200000D01*
X97312897Y-140327638D01*
X97312898Y-140327639D01*
X97438402Y-140506877D01*
X97593123Y-140661598D01*
X97772361Y-140787102D01*
X97970670Y-140879575D01*
X98182023Y-140936207D01*
X98364926Y-140952208D01*
X98399998Y-140955277D01*
X98400000Y-140955277D01*
X98400002Y-140955277D01*
X98428254Y-140952805D01*
X98617977Y-140936207D01*
X98829330Y-140879575D01*
X99027639Y-140787102D01*
X99206877Y-140661598D01*
X99361598Y-140506877D01*
X99487102Y-140327639D01*
X99579575Y-140129330D01*
X99636207Y-139917977D01*
X99655277Y-139700000D01*
X99636207Y-139482023D01*
X99579575Y-139270670D01*
X99487102Y-139072362D01*
X99487100Y-139072359D01*
X99487099Y-139072357D01*
X99361599Y-138893124D01*
X99296900Y-138828425D01*
X99206877Y-138738402D01*
X99027639Y-138612898D01*
X99027640Y-138612898D01*
X99027638Y-138612897D01*
X98928484Y-138566661D01*
X98829330Y-138520425D01*
X98829326Y-138520424D01*
X98829322Y-138520422D01*
X98617977Y-138463793D01*
X98400002Y-138444723D01*
X98399998Y-138444723D01*
X98254682Y-138457436D01*
X98182023Y-138463793D01*
X98182020Y-138463793D01*
X97970677Y-138520422D01*
X97970668Y-138520426D01*
X97772361Y-138612898D01*
X97772357Y-138612900D01*
X97593121Y-138738402D01*
X97438402Y-138893121D01*
X97312900Y-139072357D01*
X97312898Y-139072361D01*
X97220426Y-139270668D01*
X97220422Y-139270677D01*
X97163793Y-139482020D01*
X97163793Y-139482024D01*
X97144723Y-139699997D01*
X66400500Y-139699997D01*
X66400500Y-133162412D01*
X66420185Y-133095373D01*
X66427555Y-133085097D01*
X66429810Y-133082267D01*
X66429816Y-133082262D01*
X66525789Y-132929522D01*
X66585368Y-132759255D01*
X66595161Y-132672329D01*
X66622226Y-132607918D01*
X66630690Y-132598543D01*
X67033506Y-132195728D01*
X67033511Y-132195724D01*
X67043714Y-132185520D01*
X67043716Y-132185520D01*
X67155520Y-132073716D01*
X67209915Y-131979500D01*
X67234577Y-131936785D01*
X67275501Y-131784057D01*
X67275501Y-131625943D01*
X67275501Y-131618348D01*
X67275500Y-131618330D01*
X67275500Y-125425097D01*
X67295185Y-125358058D01*
X67311819Y-125337416D01*
X67412416Y-125236819D01*
X67473739Y-125203334D01*
X67500097Y-125200500D01*
X67606921Y-125200500D01*
X67673960Y-125220185D01*
X67719715Y-125272989D01*
X67729659Y-125342147D01*
X67711915Y-125390472D01*
X67674211Y-125450476D01*
X67614631Y-125620745D01*
X67614630Y-125620750D01*
X67594435Y-125799996D01*
X67594435Y-125800003D01*
X67614630Y-125979249D01*
X67614631Y-125979254D01*
X67674211Y-126149523D01*
X67769077Y-126300500D01*
X67770184Y-126302262D01*
X67897738Y-126429816D01*
X68050478Y-126525789D01*
X68202709Y-126579057D01*
X68220745Y-126585368D01*
X68220750Y-126585369D01*
X68399996Y-126605565D01*
X68400000Y-126605565D01*
X68400004Y-126605565D01*
X68579249Y-126585369D01*
X68579252Y-126585368D01*
X68579255Y-126585368D01*
X68749522Y-126525789D01*
X68902262Y-126429816D01*
X69029816Y-126302262D01*
X69125789Y-126149522D01*
X69185368Y-125979255D01*
X69195161Y-125892329D01*
X69222226Y-125827918D01*
X69230680Y-125818553D01*
X69412417Y-125636816D01*
X69473740Y-125603334D01*
X69500097Y-125600500D01*
X77550902Y-125600500D01*
X77617941Y-125620185D01*
X77663696Y-125672989D01*
X77673640Y-125742147D01*
X77644615Y-125805703D01*
X77638583Y-125812181D01*
X77319481Y-126131282D01*
X77319477Y-126131287D01*
X77300052Y-126164935D01*
X77300051Y-126164937D01*
X77240423Y-126268215D01*
X77199499Y-126420943D01*
X77199499Y-126420945D01*
X77199499Y-126589046D01*
X77199500Y-126589059D01*
X77199500Y-137717587D01*
X77179815Y-137784626D01*
X77172450Y-137794896D01*
X77170186Y-137797734D01*
X77074211Y-137950476D01*
X77014631Y-138120745D01*
X77014630Y-138120750D01*
X76994435Y-138299996D01*
X76994435Y-138300003D01*
X77014630Y-138479249D01*
X77014631Y-138479254D01*
X77074211Y-138649523D01*
X77170184Y-138802262D01*
X77297738Y-138929816D01*
X77372828Y-138976998D01*
X77433076Y-139014855D01*
X77450478Y-139025789D01*
X77583562Y-139072357D01*
X77620745Y-139085368D01*
X77620750Y-139085369D01*
X77799996Y-139105565D01*
X77800000Y-139105565D01*
X77800004Y-139105565D01*
X77979249Y-139085369D01*
X77979252Y-139085368D01*
X77979255Y-139085368D01*
X78149522Y-139025789D01*
X78302262Y-138929816D01*
X78429816Y-138802262D01*
X78525789Y-138649522D01*
X78585368Y-138479255D01*
X78589259Y-138444723D01*
X78605565Y-138300003D01*
X78605565Y-138299996D01*
X78585369Y-138120750D01*
X78585368Y-138120745D01*
X78525788Y-137950476D01*
X78429813Y-137797734D01*
X78427550Y-137794896D01*
X78426659Y-137792715D01*
X78426111Y-137791842D01*
X78426264Y-137791745D01*
X78401144Y-137730209D01*
X78400500Y-137717587D01*
X78400500Y-136200000D01*
X102144723Y-136200000D01*
X102161345Y-136390000D01*
X102163793Y-136417975D01*
X102163793Y-136417979D01*
X102220422Y-136629322D01*
X102220424Y-136629326D01*
X102220425Y-136629330D01*
X102266661Y-136728484D01*
X102312897Y-136827638D01*
X102312898Y-136827639D01*
X102438402Y-137006877D01*
X102593123Y-137161598D01*
X102772361Y-137287102D01*
X102970670Y-137379575D01*
X103182023Y-137436207D01*
X103364926Y-137452208D01*
X103399998Y-137455277D01*
X103400000Y-137455277D01*
X103400002Y-137455277D01*
X103428254Y-137452805D01*
X103617977Y-137436207D01*
X103829330Y-137379575D01*
X104027639Y-137287102D01*
X104206877Y-137161598D01*
X104361598Y-137006877D01*
X104487102Y-136827639D01*
X104579575Y-136629330D01*
X104636207Y-136417977D01*
X104655277Y-136200000D01*
X104636207Y-135982023D01*
X104579575Y-135770670D01*
X104487102Y-135572362D01*
X104487100Y-135572359D01*
X104487099Y-135572357D01*
X104361599Y-135393124D01*
X104323878Y-135355403D01*
X104206877Y-135238402D01*
X104037782Y-135120000D01*
X104027638Y-135112897D01*
X103928484Y-135066661D01*
X103829330Y-135020425D01*
X103829326Y-135020424D01*
X103829322Y-135020422D01*
X103617977Y-134963793D01*
X103400002Y-134944723D01*
X103399998Y-134944723D01*
X103254682Y-134957436D01*
X103182023Y-134963793D01*
X103182020Y-134963793D01*
X102970677Y-135020422D01*
X102970668Y-135020426D01*
X102772361Y-135112898D01*
X102772357Y-135112900D01*
X102593121Y-135238402D01*
X102438402Y-135393121D01*
X102312900Y-135572357D01*
X102312898Y-135572361D01*
X102220426Y-135770668D01*
X102220422Y-135770677D01*
X102163793Y-135982020D01*
X102163793Y-135982023D01*
X102144723Y-136200000D01*
X78400500Y-136200000D01*
X78400500Y-132699997D01*
X97144723Y-132699997D01*
X97144723Y-132700002D01*
X97163793Y-132917975D01*
X97163793Y-132917979D01*
X97220422Y-133129322D01*
X97220424Y-133129326D01*
X97220425Y-133129330D01*
X97266661Y-133228484D01*
X97312897Y-133327638D01*
X97312898Y-133327639D01*
X97438402Y-133506877D01*
X97593123Y-133661598D01*
X97772361Y-133787102D01*
X97970670Y-133879575D01*
X98182023Y-133936207D01*
X98357685Y-133951575D01*
X98399998Y-133955277D01*
X98400000Y-133955277D01*
X98400002Y-133955277D01*
X98428254Y-133952805D01*
X98617977Y-133936207D01*
X98829330Y-133879575D01*
X99027639Y-133787102D01*
X99206877Y-133661598D01*
X99361598Y-133506877D01*
X99487102Y-133327639D01*
X99579575Y-133129330D01*
X99636207Y-132917977D01*
X99655277Y-132700000D01*
X99636207Y-132482023D01*
X99579575Y-132270670D01*
X99487102Y-132072362D01*
X99487100Y-132072359D01*
X99487099Y-132072357D01*
X99361599Y-131893124D01*
X99322685Y-131854210D01*
X99206877Y-131738402D01*
X99046269Y-131625943D01*
X99027638Y-131612897D01*
X98874536Y-131541505D01*
X98829330Y-131520425D01*
X98829326Y-131520424D01*
X98829322Y-131520422D01*
X98617977Y-131463793D01*
X98400002Y-131444723D01*
X98399998Y-131444723D01*
X98268071Y-131456265D01*
X98182023Y-131463793D01*
X98182020Y-131463793D01*
X97970677Y-131520422D01*
X97970668Y-131520426D01*
X97772361Y-131612898D01*
X97772357Y-131612900D01*
X97593121Y-131738402D01*
X97438402Y-131893121D01*
X97312900Y-132072357D01*
X97312898Y-132072361D01*
X97220426Y-132270668D01*
X97220422Y-132270677D01*
X97163793Y-132482020D01*
X97163793Y-132482024D01*
X97144723Y-132699997D01*
X78400500Y-132699997D01*
X78400500Y-129199997D01*
X102144723Y-129199997D01*
X102144723Y-129200002D01*
X102163793Y-129417975D01*
X102163793Y-129417979D01*
X102220422Y-129629322D01*
X102220424Y-129629326D01*
X102220425Y-129629330D01*
X102253601Y-129700476D01*
X102312897Y-129827638D01*
X102312898Y-129827639D01*
X102438402Y-130006877D01*
X102593123Y-130161598D01*
X102772361Y-130287102D01*
X102970670Y-130379575D01*
X103182023Y-130436207D01*
X103364926Y-130452208D01*
X103399998Y-130455277D01*
X103400000Y-130455277D01*
X103400002Y-130455277D01*
X103428254Y-130452805D01*
X103617977Y-130436207D01*
X103829330Y-130379575D01*
X104027639Y-130287102D01*
X104206877Y-130161598D01*
X104361598Y-130006877D01*
X104487102Y-129827639D01*
X104579575Y-129629330D01*
X104636207Y-129417977D01*
X104655277Y-129200000D01*
X104636207Y-128982023D01*
X104579575Y-128770670D01*
X104487102Y-128572362D01*
X104487100Y-128572359D01*
X104487099Y-128572357D01*
X104361599Y-128393124D01*
X104339870Y-128371395D01*
X104206877Y-128238402D01*
X104027639Y-128112898D01*
X104027640Y-128112898D01*
X104027638Y-128112897D01*
X103928484Y-128066661D01*
X103829330Y-128020425D01*
X103829326Y-128020424D01*
X103829322Y-128020422D01*
X103617977Y-127963793D01*
X103400002Y-127944723D01*
X103399998Y-127944723D01*
X103254682Y-127957436D01*
X103182023Y-127963793D01*
X103182020Y-127963793D01*
X102970677Y-128020422D01*
X102970668Y-128020426D01*
X102772361Y-128112898D01*
X102772357Y-128112900D01*
X102593121Y-128238402D01*
X102438402Y-128393121D01*
X102312900Y-128572357D01*
X102312898Y-128572361D01*
X102220426Y-128770668D01*
X102220422Y-128770677D01*
X102163793Y-128982020D01*
X102163793Y-128982024D01*
X102144723Y-129199997D01*
X78400500Y-129199997D01*
X78400500Y-126800097D01*
X78420185Y-126733058D01*
X78436819Y-126712416D01*
X78812416Y-126336819D01*
X78873739Y-126303334D01*
X78900097Y-126300500D01*
X81417588Y-126300500D01*
X81484627Y-126320185D01*
X81494903Y-126327555D01*
X81497736Y-126329814D01*
X81497738Y-126329816D01*
X81611270Y-126401152D01*
X81642768Y-126420945D01*
X81650478Y-126425789D01*
X81820745Y-126485368D01*
X81820750Y-126485369D01*
X81999996Y-126505565D01*
X82000000Y-126505565D01*
X82000004Y-126505565D01*
X82179249Y-126485369D01*
X82179252Y-126485368D01*
X82179255Y-126485368D01*
X82349522Y-126425789D01*
X82502262Y-126329816D01*
X82629816Y-126202262D01*
X82725789Y-126049522D01*
X82785368Y-125879255D01*
X82790761Y-125831395D01*
X82804369Y-125710617D01*
X82808831Y-125699999D01*
X97145225Y-125699999D01*
X97145225Y-125700000D01*
X97164287Y-125917884D01*
X97164289Y-125917894D01*
X97220894Y-126129150D01*
X97220898Y-126129159D01*
X97313333Y-126327387D01*
X97356874Y-126389571D01*
X97917037Y-125829408D01*
X97934075Y-125892993D01*
X97999901Y-126007007D01*
X98092993Y-126100099D01*
X98207007Y-126165925D01*
X98270590Y-126182962D01*
X97710427Y-126743124D01*
X97772612Y-126786666D01*
X97970840Y-126879101D01*
X97970849Y-126879105D01*
X98182105Y-126935710D01*
X98182115Y-126935712D01*
X98399999Y-126954775D01*
X98400001Y-126954775D01*
X98617884Y-126935712D01*
X98617894Y-126935710D01*
X98829150Y-126879105D01*
X98829164Y-126879100D01*
X99027383Y-126786669D01*
X99027385Y-126786668D01*
X99089571Y-126743124D01*
X98529410Y-126182962D01*
X98592993Y-126165925D01*
X98707007Y-126100099D01*
X98800099Y-126007007D01*
X98865925Y-125892993D01*
X98882962Y-125829409D01*
X99443124Y-126389570D01*
X99486668Y-126327385D01*
X99486669Y-126327383D01*
X99579100Y-126129164D01*
X99579105Y-126129150D01*
X99635710Y-125917894D01*
X99635712Y-125917884D01*
X99654775Y-125700000D01*
X99654775Y-125699999D01*
X99635712Y-125482115D01*
X99635710Y-125482105D01*
X99579105Y-125270849D01*
X99579101Y-125270840D01*
X99486667Y-125072614D01*
X99486666Y-125072612D01*
X99443124Y-125010428D01*
X99443124Y-125010427D01*
X98882962Y-125570589D01*
X98865925Y-125507007D01*
X98800099Y-125392993D01*
X98707007Y-125299901D01*
X98592993Y-125234075D01*
X98529409Y-125217037D01*
X99089571Y-124656874D01*
X99027387Y-124613333D01*
X98829159Y-124520898D01*
X98829150Y-124520894D01*
X98617894Y-124464289D01*
X98617884Y-124464287D01*
X98400001Y-124445225D01*
X98399999Y-124445225D01*
X98182115Y-124464287D01*
X98182105Y-124464289D01*
X97970849Y-124520894D01*
X97970840Y-124520898D01*
X97772613Y-124613333D01*
X97710428Y-124656874D01*
X98270591Y-125217037D01*
X98207007Y-125234075D01*
X98092993Y-125299901D01*
X97999901Y-125392993D01*
X97934075Y-125507007D01*
X97917037Y-125570591D01*
X97356874Y-125010428D01*
X97313333Y-125072613D01*
X97220898Y-125270840D01*
X97220894Y-125270849D01*
X97164289Y-125482105D01*
X97164287Y-125482115D01*
X97145225Y-125699999D01*
X82808831Y-125699999D01*
X82831435Y-125646203D01*
X82889030Y-125606648D01*
X82927589Y-125600500D01*
X86913331Y-125600500D01*
X86913347Y-125600501D01*
X86920943Y-125600501D01*
X87079054Y-125600501D01*
X87079057Y-125600501D01*
X87231785Y-125559577D01*
X87281904Y-125530639D01*
X87368716Y-125480520D01*
X87480520Y-125368716D01*
X87480520Y-125368714D01*
X87680520Y-125168716D01*
X87759577Y-125031784D01*
X87800501Y-124879057D01*
X87800501Y-124720942D01*
X87800501Y-124713347D01*
X87800500Y-124713329D01*
X87800500Y-122199997D01*
X102144723Y-122199997D01*
X102144723Y-122200002D01*
X102163793Y-122417975D01*
X102163793Y-122417979D01*
X102220422Y-122629322D01*
X102220424Y-122629326D01*
X102220425Y-122629330D01*
X102243314Y-122678416D01*
X102312897Y-122827638D01*
X102312898Y-122827639D01*
X102438402Y-123006877D01*
X102593123Y-123161598D01*
X102772361Y-123287102D01*
X102970670Y-123379575D01*
X103182023Y-123436207D01*
X103364926Y-123452208D01*
X103399998Y-123455277D01*
X103400000Y-123455277D01*
X103400002Y-123455277D01*
X103428254Y-123452805D01*
X103617977Y-123436207D01*
X103829330Y-123379575D01*
X104027639Y-123287102D01*
X104206877Y-123161598D01*
X104361598Y-123006877D01*
X104487102Y-122827639D01*
X104579575Y-122629330D01*
X104636207Y-122417977D01*
X104655277Y-122200000D01*
X104653929Y-122184596D01*
X104648810Y-122126083D01*
X104636207Y-121982023D01*
X104579575Y-121770670D01*
X104487102Y-121572362D01*
X104487100Y-121572359D01*
X104487099Y-121572357D01*
X104361599Y-121393124D01*
X104349976Y-121381501D01*
X104206877Y-121238402D01*
X104027639Y-121112898D01*
X104027640Y-121112898D01*
X104027638Y-121112897D01*
X103889376Y-121048425D01*
X103829330Y-121020425D01*
X103829326Y-121020424D01*
X103829322Y-121020422D01*
X103617977Y-120963793D01*
X103400002Y-120944723D01*
X103399998Y-120944723D01*
X103254682Y-120957436D01*
X103182023Y-120963793D01*
X103182020Y-120963793D01*
X102970677Y-121020422D01*
X102970668Y-121020426D01*
X102772361Y-121112898D01*
X102772357Y-121112900D01*
X102593121Y-121238402D01*
X102438402Y-121393121D01*
X102312900Y-121572357D01*
X102312898Y-121572361D01*
X102220426Y-121770668D01*
X102220422Y-121770677D01*
X102163793Y-121982020D01*
X102163793Y-121982024D01*
X102144723Y-122199997D01*
X87800500Y-122199997D01*
X87800500Y-120582412D01*
X87820185Y-120515373D01*
X87827555Y-120505097D01*
X87829810Y-120502267D01*
X87829816Y-120502262D01*
X87925789Y-120349522D01*
X87985368Y-120179255D01*
X87985369Y-120179249D01*
X88005565Y-120000003D01*
X88005565Y-119999996D01*
X87985369Y-119820750D01*
X87985368Y-119820745D01*
X87925788Y-119650476D01*
X87829815Y-119497737D01*
X87702262Y-119370184D01*
X87549523Y-119274211D01*
X87379254Y-119214631D01*
X87379249Y-119214630D01*
X87200004Y-119194435D01*
X87199996Y-119194435D01*
X87020750Y-119214630D01*
X87020745Y-119214631D01*
X86850476Y-119274211D01*
X86697737Y-119370184D01*
X86570184Y-119497737D01*
X86504994Y-119601487D01*
X86452659Y-119647778D01*
X86383605Y-119658426D01*
X86319757Y-119630051D01*
X86295006Y-119601487D01*
X86229815Y-119497737D01*
X86102262Y-119370184D01*
X85949523Y-119274211D01*
X85779254Y-119214631D01*
X85779249Y-119214630D01*
X85600004Y-119194435D01*
X85599996Y-119194435D01*
X85420750Y-119214630D01*
X85420745Y-119214631D01*
X85250476Y-119274211D01*
X85097737Y-119370184D01*
X85087681Y-119380241D01*
X85026358Y-119413726D01*
X84956666Y-119408742D01*
X84912319Y-119380241D01*
X84902262Y-119370184D01*
X84749523Y-119274211D01*
X84579254Y-119214631D01*
X84579249Y-119214630D01*
X84400004Y-119194435D01*
X84399996Y-119194435D01*
X84220750Y-119214630D01*
X84220745Y-119214631D01*
X84050476Y-119274211D01*
X83940472Y-119343332D01*
X83873235Y-119362332D01*
X83806400Y-119341964D01*
X83761186Y-119288696D01*
X83750500Y-119238338D01*
X83750500Y-118674500D01*
X83770185Y-118607461D01*
X83822989Y-118561706D01*
X83874500Y-118550500D01*
X87700028Y-118550500D01*
X87740983Y-118557458D01*
X87820745Y-118585368D01*
X87820750Y-118585369D01*
X87999996Y-118605565D01*
X88000000Y-118605565D01*
X88000004Y-118605565D01*
X88179249Y-118585369D01*
X88179252Y-118585368D01*
X88179255Y-118585368D01*
X88349522Y-118525789D01*
X88502262Y-118429816D01*
X88629816Y-118302262D01*
X88725789Y-118149522D01*
X88785368Y-117979255D01*
X88791359Y-117926082D01*
X88805565Y-117800003D01*
X88805565Y-117799996D01*
X88785369Y-117620750D01*
X88785368Y-117620745D01*
X88725788Y-117450476D01*
X88629815Y-117297737D01*
X88502262Y-117170184D01*
X88349523Y-117074211D01*
X88179254Y-117014631D01*
X88179249Y-117014630D01*
X88000004Y-116994435D01*
X87999996Y-116994435D01*
X87820750Y-117014630D01*
X87820745Y-117014631D01*
X87740983Y-117042542D01*
X87700028Y-117049500D01*
X83126076Y-117049500D01*
X83097242Y-117055234D01*
X83097243Y-117055235D01*
X82981093Y-117078339D01*
X82981083Y-117078342D01*
X82901081Y-117111479D01*
X82901082Y-117111480D01*
X82844502Y-117134917D01*
X82795269Y-117167813D01*
X82721588Y-117217044D01*
X82721580Y-117217050D01*
X82417048Y-117521583D01*
X82399007Y-117548584D01*
X82381085Y-117575408D01*
X82334914Y-117644507D01*
X82278343Y-117781082D01*
X82278340Y-117781092D01*
X82249500Y-117926079D01*
X82249500Y-121725500D01*
X82229815Y-121792539D01*
X82177011Y-121838294D01*
X82125500Y-121849500D01*
X79099972Y-121849500D01*
X79059017Y-121842542D01*
X78979254Y-121814631D01*
X78979249Y-121814630D01*
X78800004Y-121794435D01*
X78799996Y-121794435D01*
X78620750Y-121814630D01*
X78620745Y-121814631D01*
X78540983Y-121842542D01*
X78500028Y-121849500D01*
X72899972Y-121849500D01*
X72859017Y-121842542D01*
X72779254Y-121814631D01*
X72779249Y-121814630D01*
X72600004Y-121794435D01*
X72599996Y-121794435D01*
X72420750Y-121814630D01*
X72420745Y-121814631D01*
X72340983Y-121842542D01*
X72300028Y-121849500D01*
X67474500Y-121849500D01*
X67407461Y-121829815D01*
X67361706Y-121777011D01*
X67350500Y-121725500D01*
X67350500Y-112926079D01*
X67321659Y-112781092D01*
X67321658Y-112781091D01*
X67321658Y-112781087D01*
X67265084Y-112644505D01*
X67232186Y-112595270D01*
X67232185Y-112595268D01*
X67182956Y-112521589D01*
X67182952Y-112521584D01*
X66338413Y-111677045D01*
X66289179Y-111644150D01*
X66256355Y-111622218D01*
X66215495Y-111594916D01*
X66215494Y-111594915D01*
X66215492Y-111594914D01*
X66215490Y-111594913D01*
X66078917Y-111538343D01*
X66078907Y-111538340D01*
X65933920Y-111509500D01*
X65933918Y-111509500D01*
X64474499Y-111509500D01*
X64407460Y-111489815D01*
X64361705Y-111437011D01*
X64350499Y-111385500D01*
X64350499Y-111362129D01*
X64350498Y-111362123D01*
X64350497Y-111362116D01*
X64344091Y-111302517D01*
X64293796Y-111167669D01*
X64293795Y-111167668D01*
X64293793Y-111167664D01*
X64207547Y-111052455D01*
X64207544Y-111052452D01*
X64092335Y-110966206D01*
X64092328Y-110966202D01*
X63957482Y-110915908D01*
X63957483Y-110915908D01*
X63897883Y-110909501D01*
X63897881Y-110909500D01*
X63897873Y-110909500D01*
X63897864Y-110909500D01*
X62102129Y-110909500D01*
X62102123Y-110909501D01*
X62042516Y-110915908D01*
X61907671Y-110966202D01*
X61907664Y-110966206D01*
X61792455Y-111052452D01*
X61792452Y-111052455D01*
X61706206Y-111167664D01*
X61706202Y-111167671D01*
X61655908Y-111302517D01*
X61649501Y-111362116D01*
X61649501Y-111362123D01*
X61649500Y-111362135D01*
X61649500Y-113157870D01*
X61649501Y-113157876D01*
X61655908Y-113217483D01*
X61706202Y-113352328D01*
X61706206Y-113352335D01*
X61792452Y-113467544D01*
X61792455Y-113467547D01*
X61907664Y-113553793D01*
X61907671Y-113553797D01*
X61907674Y-113553798D01*
X62039598Y-113603002D01*
X62095531Y-113644873D01*
X62119949Y-113710337D01*
X62105098Y-113778610D01*
X62083947Y-113806865D01*
X61961886Y-113928926D01*
X61826400Y-114122420D01*
X61826399Y-114122422D01*
X61726570Y-114336507D01*
X61726567Y-114336513D01*
X61669364Y-114549999D01*
X61669364Y-114550000D01*
X62566988Y-114550000D01*
X62534075Y-114607007D01*
X62500000Y-114734174D01*
X62500000Y-114865826D01*
X62534075Y-114992993D01*
X62566988Y-115050000D01*
X61669364Y-115050000D01*
X61726567Y-115263486D01*
X61726570Y-115263492D01*
X61826399Y-115477578D01*
X61961894Y-115671082D01*
X62128917Y-115838105D01*
X62314595Y-115968119D01*
X62358219Y-116022696D01*
X62365412Y-116092195D01*
X62333890Y-116154549D01*
X62314595Y-116171269D01*
X62128594Y-116301508D01*
X61961505Y-116468597D01*
X61825965Y-116662169D01*
X61825964Y-116662171D01*
X61726098Y-116876335D01*
X61726094Y-116876344D01*
X61664938Y-117104586D01*
X61664936Y-117104596D01*
X61644341Y-117339999D01*
X60500500Y-117339999D01*
X60500500Y-105799996D01*
X65994435Y-105799996D01*
X65994435Y-105800003D01*
X66014630Y-105979249D01*
X66014631Y-105979254D01*
X66074211Y-106149523D01*
X66170184Y-106302262D01*
X66297738Y-106429816D01*
X66450478Y-106525789D01*
X66620745Y-106585368D01*
X66620750Y-106585369D01*
X66799996Y-106605565D01*
X66800000Y-106605565D01*
X66800004Y-106605565D01*
X66979249Y-106585369D01*
X66979252Y-106585368D01*
X66979255Y-106585368D01*
X67149522Y-106525789D01*
X67302262Y-106429816D01*
X67429816Y-106302262D01*
X67525789Y-106149522D01*
X67585368Y-105979255D01*
X67595161Y-105892329D01*
X67622226Y-105827918D01*
X67630690Y-105818543D01*
X71512416Y-101936819D01*
X71573739Y-101903334D01*
X71600097Y-101900500D01*
X72750902Y-101900500D01*
X72817941Y-101920185D01*
X72863696Y-101972989D01*
X72873640Y-102042147D01*
X72844615Y-102105703D01*
X72838583Y-102112181D01*
X72769478Y-102181286D01*
X67381465Y-107569298D01*
X67320142Y-107602783D01*
X67307668Y-107604837D01*
X67220750Y-107614630D01*
X67050478Y-107674210D01*
X66897737Y-107770184D01*
X66770184Y-107897737D01*
X66674211Y-108050476D01*
X66614631Y-108220745D01*
X66614630Y-108220750D01*
X66594435Y-108399996D01*
X66594435Y-108400003D01*
X66614630Y-108579249D01*
X66614631Y-108579254D01*
X66674211Y-108749523D01*
X66770184Y-108902262D01*
X66897738Y-109029816D01*
X67050478Y-109125789D01*
X67220745Y-109185368D01*
X67220750Y-109185369D01*
X67399996Y-109205565D01*
X67400000Y-109205565D01*
X67400004Y-109205565D01*
X67579249Y-109185369D01*
X67579252Y-109185368D01*
X67579255Y-109185368D01*
X67749522Y-109125789D01*
X67902262Y-109029816D01*
X68029816Y-108902262D01*
X68125789Y-108749522D01*
X68185368Y-108579255D01*
X68195161Y-108492329D01*
X68222226Y-108427918D01*
X68230690Y-108418543D01*
X73462416Y-103186819D01*
X73523739Y-103153334D01*
X73550097Y-103150500D01*
X84442588Y-103150500D01*
X84509627Y-103170185D01*
X84519903Y-103177555D01*
X84522736Y-103179814D01*
X84522738Y-103179816D01*
X84675478Y-103275789D01*
X84845745Y-103335368D01*
X84845750Y-103335369D01*
X85024996Y-103355565D01*
X85025000Y-103355565D01*
X85025004Y-103355565D01*
X85204249Y-103335369D01*
X85204252Y-103335368D01*
X85204255Y-103335368D01*
X85374522Y-103275789D01*
X85527262Y-103179816D01*
X85654816Y-103052262D01*
X85750789Y-102899522D01*
X85810368Y-102729255D01*
X85830565Y-102550000D01*
X85830565Y-102549997D01*
X97144723Y-102549997D01*
X97144723Y-102550002D01*
X97163793Y-102767975D01*
X97163793Y-102767979D01*
X97220422Y-102979322D01*
X97220424Y-102979326D01*
X97220425Y-102979330D01*
X97254434Y-103052262D01*
X97312897Y-103177638D01*
X97314422Y-103179816D01*
X97438402Y-103356877D01*
X97593123Y-103511598D01*
X97772361Y-103637102D01*
X97970670Y-103729575D01*
X98182023Y-103786207D01*
X98364926Y-103802208D01*
X98399998Y-103805277D01*
X98400000Y-103805277D01*
X98400002Y-103805277D01*
X98428254Y-103802805D01*
X98617977Y-103786207D01*
X98829330Y-103729575D01*
X99027639Y-103637102D01*
X99206877Y-103511598D01*
X99361598Y-103356877D01*
X99487102Y-103177639D01*
X99579575Y-102979330D01*
X99636207Y-102767977D01*
X99655277Y-102550000D01*
X99636207Y-102332023D01*
X99579575Y-102120670D01*
X99487102Y-101922362D01*
X99487100Y-101922359D01*
X99487099Y-101922357D01*
X99361599Y-101743124D01*
X99361596Y-101743121D01*
X99206877Y-101588402D01*
X99027639Y-101462898D01*
X99027640Y-101462898D01*
X99027638Y-101462897D01*
X98928484Y-101416661D01*
X98829330Y-101370425D01*
X98829326Y-101370424D01*
X98829322Y-101370422D01*
X98617977Y-101313793D01*
X98400002Y-101294723D01*
X98399998Y-101294723D01*
X98254682Y-101307436D01*
X98182023Y-101313793D01*
X98182020Y-101313793D01*
X97970677Y-101370422D01*
X97970668Y-101370426D01*
X97772361Y-101462898D01*
X97772357Y-101462900D01*
X97593121Y-101588402D01*
X97438402Y-101743121D01*
X97312900Y-101922357D01*
X97312898Y-101922361D01*
X97220426Y-102120668D01*
X97220422Y-102120677D01*
X97163793Y-102332020D01*
X97163793Y-102332024D01*
X97144723Y-102549997D01*
X85830565Y-102549997D01*
X85810368Y-102370745D01*
X85810367Y-102370743D01*
X85810366Y-102370737D01*
X85771165Y-102258708D01*
X85767603Y-102188929D01*
X85802331Y-102128302D01*
X85864324Y-102096074D01*
X85902088Y-102094533D01*
X85957601Y-102100787D01*
X85999998Y-102105565D01*
X86000000Y-102105565D01*
X86000004Y-102105565D01*
X86179249Y-102085369D01*
X86179252Y-102085368D01*
X86179255Y-102085368D01*
X86349522Y-102025789D01*
X86502262Y-101929816D01*
X86629816Y-101802262D01*
X86725789Y-101649522D01*
X86785368Y-101479255D01*
X86797630Y-101370425D01*
X86805565Y-101300003D01*
X86805565Y-101299996D01*
X86785369Y-101120750D01*
X86785368Y-101120745D01*
X86725788Y-100950476D01*
X86629815Y-100797737D01*
X86502262Y-100670184D01*
X86349523Y-100574211D01*
X86179254Y-100514631D01*
X86179249Y-100514630D01*
X86000004Y-100494435D01*
X85999996Y-100494435D01*
X85820750Y-100514630D01*
X85820745Y-100514631D01*
X85650476Y-100574211D01*
X85497736Y-100670185D01*
X85494903Y-100672445D01*
X85492724Y-100673334D01*
X85491842Y-100673889D01*
X85491744Y-100673734D01*
X85430217Y-100698855D01*
X85417588Y-100699500D01*
X71386669Y-100699500D01*
X71386653Y-100699499D01*
X71379057Y-100699499D01*
X71220943Y-100699499D01*
X71113587Y-100728265D01*
X71068210Y-100740424D01*
X71068209Y-100740425D01*
X71033066Y-100760716D01*
X71033064Y-100760717D01*
X70931290Y-100819475D01*
X70931282Y-100819481D01*
X70819478Y-100931286D01*
X66781465Y-104969298D01*
X66720142Y-105002783D01*
X66707668Y-105004837D01*
X66620750Y-105014630D01*
X66450478Y-105074210D01*
X66297737Y-105170184D01*
X66170184Y-105297737D01*
X66074211Y-105450476D01*
X66014631Y-105620745D01*
X66014630Y-105620750D01*
X65994435Y-105799996D01*
X60500500Y-105799996D01*
X60500500Y-99049999D01*
X102145225Y-99049999D01*
X102145225Y-99050000D01*
X102164287Y-99267884D01*
X102164289Y-99267894D01*
X102220894Y-99479150D01*
X102220898Y-99479159D01*
X102313333Y-99677387D01*
X102356874Y-99739571D01*
X102917037Y-99179408D01*
X102934075Y-99242993D01*
X102999901Y-99357007D01*
X103092993Y-99450099D01*
X103207007Y-99515925D01*
X103270590Y-99532962D01*
X102710427Y-100093124D01*
X102772612Y-100136666D01*
X102970840Y-100229101D01*
X102970849Y-100229105D01*
X103182105Y-100285710D01*
X103182115Y-100285712D01*
X103399999Y-100304775D01*
X103400001Y-100304775D01*
X103617884Y-100285712D01*
X103617894Y-100285710D01*
X103829150Y-100229105D01*
X103829164Y-100229100D01*
X104027383Y-100136669D01*
X104027385Y-100136668D01*
X104089571Y-100093124D01*
X103529410Y-99532962D01*
X103592993Y-99515925D01*
X103707007Y-99450099D01*
X103800099Y-99357007D01*
X103865925Y-99242993D01*
X103882962Y-99179409D01*
X104443124Y-99739570D01*
X104486668Y-99677385D01*
X104486669Y-99677383D01*
X104579100Y-99479164D01*
X104579105Y-99479150D01*
X104635710Y-99267894D01*
X104635712Y-99267884D01*
X104654775Y-99050000D01*
X104654775Y-99049999D01*
X104635712Y-98832115D01*
X104635710Y-98832105D01*
X104579105Y-98620849D01*
X104579101Y-98620840D01*
X104486667Y-98422614D01*
X104486666Y-98422612D01*
X104443124Y-98360428D01*
X104443124Y-98360427D01*
X103882962Y-98920589D01*
X103865925Y-98857007D01*
X103800099Y-98742993D01*
X103707007Y-98649901D01*
X103592993Y-98584075D01*
X103529409Y-98567037D01*
X104089571Y-98006874D01*
X104027387Y-97963333D01*
X103829159Y-97870898D01*
X103829150Y-97870894D01*
X103617894Y-97814289D01*
X103617884Y-97814287D01*
X103400001Y-97795225D01*
X103399999Y-97795225D01*
X103182115Y-97814287D01*
X103182105Y-97814289D01*
X102970849Y-97870894D01*
X102970840Y-97870898D01*
X102772613Y-97963333D01*
X102710428Y-98006874D01*
X103270591Y-98567037D01*
X103207007Y-98584075D01*
X103092993Y-98649901D01*
X102999901Y-98742993D01*
X102934075Y-98857007D01*
X102917037Y-98920591D01*
X102356874Y-98360428D01*
X102313333Y-98422613D01*
X102220898Y-98620840D01*
X102220894Y-98620849D01*
X102164289Y-98832105D01*
X102164287Y-98832115D01*
X102145225Y-99049999D01*
X60500500Y-99049999D01*
X60500500Y-92881902D01*
X61499500Y-92881902D01*
X61499500Y-93118097D01*
X61536446Y-93351368D01*
X61609433Y-93575996D01*
X61716657Y-93786433D01*
X61855483Y-93977510D01*
X62022490Y-94144517D01*
X62213567Y-94283343D01*
X62312991Y-94334002D01*
X62424003Y-94390566D01*
X62424005Y-94390566D01*
X62424008Y-94390568D01*
X62544412Y-94429689D01*
X62648631Y-94463553D01*
X62881903Y-94500500D01*
X62881908Y-94500500D01*
X63118097Y-94500500D01*
X63351368Y-94463553D01*
X63575992Y-94390568D01*
X63786433Y-94283343D01*
X63977510Y-94144517D01*
X64144517Y-93977510D01*
X64283343Y-93786433D01*
X64390568Y-93575992D01*
X64463553Y-93351368D01*
X64500500Y-93118097D01*
X64500500Y-92881902D01*
X104499500Y-92881902D01*
X104499500Y-93118097D01*
X104536446Y-93351368D01*
X104609433Y-93575996D01*
X104716657Y-93786433D01*
X104855483Y-93977510D01*
X105022490Y-94144517D01*
X105213567Y-94283343D01*
X105312991Y-94334002D01*
X105424003Y-94390566D01*
X105424005Y-94390566D01*
X105424008Y-94390568D01*
X105544412Y-94429689D01*
X105648631Y-94463553D01*
X105881903Y-94500500D01*
X105881908Y-94500500D01*
X106118097Y-94500500D01*
X106351368Y-94463553D01*
X106575992Y-94390568D01*
X106786433Y-94283343D01*
X106977510Y-94144517D01*
X107144517Y-93977510D01*
X107283343Y-93786433D01*
X107390568Y-93575992D01*
X107463553Y-93351368D01*
X107500500Y-93118097D01*
X107500500Y-92881902D01*
X107463553Y-92648631D01*
X107390566Y-92424003D01*
X107283342Y-92213566D01*
X107144517Y-92022490D01*
X106977510Y-91855483D01*
X106786433Y-91716657D01*
X106575996Y-91609433D01*
X106351368Y-91536446D01*
X106118097Y-91499500D01*
X106118092Y-91499500D01*
X105881908Y-91499500D01*
X105881903Y-91499500D01*
X105648631Y-91536446D01*
X105424003Y-91609433D01*
X105213566Y-91716657D01*
X105104550Y-91795862D01*
X105022490Y-91855483D01*
X105022488Y-91855485D01*
X105022487Y-91855485D01*
X104855485Y-92022487D01*
X104855485Y-92022488D01*
X104855483Y-92022490D01*
X104795862Y-92104550D01*
X104716657Y-92213566D01*
X104609433Y-92424003D01*
X104536446Y-92648631D01*
X104499500Y-92881902D01*
X64500500Y-92881902D01*
X64463553Y-92648631D01*
X64390566Y-92424003D01*
X64283342Y-92213566D01*
X64144517Y-92022490D01*
X63977510Y-91855483D01*
X63786433Y-91716657D01*
X63575996Y-91609433D01*
X63351368Y-91536446D01*
X63118097Y-91499500D01*
X63118092Y-91499500D01*
X62881908Y-91499500D01*
X62881903Y-91499500D01*
X62648631Y-91536446D01*
X62424003Y-91609433D01*
X62213566Y-91716657D01*
X62104550Y-91795862D01*
X62022490Y-91855483D01*
X62022488Y-91855485D01*
X62022487Y-91855485D01*
X61855485Y-92022487D01*
X61855485Y-92022488D01*
X61855483Y-92022490D01*
X61795862Y-92104550D01*
X61716657Y-92213566D01*
X61609433Y-92424003D01*
X61536446Y-92648631D01*
X61499500Y-92881902D01*
X60500500Y-92881902D01*
X60500500Y-90624500D01*
X60520185Y-90557461D01*
X60572989Y-90511706D01*
X60624500Y-90500500D01*
X108375500Y-90500500D01*
X108442539Y-90520185D01*
G37*
%TD.AperFunction*%
%TD*%
M02*
