M48
; DRILL file {KiCad 8.0.3} date 2024-07-06T23:57:49+0200
; FORMAT={-:-/ absolute / metric / decimal}
; #@! TF.CreationDate,2024-07-06T23:57:49+02:00
; #@! TF.GenerationSoftware,Kicad,Pcbnew,8.0.3
; #@! TF.FileFunction,Plated,1,2,PTH
FMAT,2
METRIC
; #@! TA.AperFunction,Plated,PTH,ViaDrill
T1C0.300
; #@! TA.AperFunction,Plated,PTH,ComponentDrill
T2C1.000
%
G90
G05
T1
X65.7Y-130.05
X65.8Y-132.58
X65.8Y-142.74
X66.0Y-96.0
X66.8Y-105.8
X67.0Y-166.0
X67.4Y-108.4
X68.4Y-125.8
X69.0Y-112.0
X69.0Y-129.0
X72.6Y-122.6
X74.8Y-171.6
X76.0Y-170.4
X77.2Y-166.0
X77.8Y-138.3
X78.8Y-122.6
X79.0Y-108.0
X79.0Y-133.0
X80.8Y-170.4
X81.0Y-121.0
X82.0Y-125.7
X82.0Y-171.6
X84.0Y-145.0
X84.4Y-120.0
X85.0Y-133.0
X85.025Y-102.55
X85.6Y-120.0
X86.0Y-101.3
X87.2Y-120.0
X88.0Y-117.8
X90.0Y-166.0
X97.0Y-108.0
T2
X63.0Y-112.26
X63.0Y-114.8
X63.0Y-117.34
X63.0Y-119.88
X63.0Y-122.42
X63.0Y-124.96
X63.0Y-127.5
X63.0Y-130.04
X63.0Y-132.58
X63.0Y-135.12
X63.0Y-137.66
X63.0Y-140.2
X63.0Y-142.74
X63.0Y-145.28
X98.4Y-102.55
X98.4Y-125.7
X98.4Y-132.7
X98.4Y-139.7
X98.4Y-146.7
X103.4Y-99.05
X103.4Y-122.2
X103.4Y-129.2
X103.4Y-136.2
X103.4Y-143.2
M30
