%TF.GenerationSoftware,KiCad,Pcbnew,8.0.3*%
%TF.CreationDate,2024-07-07T00:38:38+02:00*%
%TF.ProjectId,tank_PCB,74616e6b-5f50-4434-922e-6b696361645f,rev?*%
%TF.SameCoordinates,Original*%
%TF.FileFunction,Soldermask,Top*%
%TF.FilePolarity,Negative*%
%FSLAX46Y46*%
G04 Gerber Fmt 4.6, Leading zero omitted, Abs format (unit mm)*
G04 Created by KiCad (PCBNEW 8.0.3) date 2024-07-07 00:38:38*
%MOMM*%
%LPD*%
G01*
G04 APERTURE LIST*
G04 Aperture macros list*
%AMRoundRect*
0 Rectangle with rounded corners*
0 $1 Rounding radius*
0 $2 $3 $4 $5 $6 $7 $8 $9 X,Y pos of 4 corners*
0 Add a 4 corners polygon primitive as box body*
4,1,4,$2,$3,$4,$5,$6,$7,$8,$9,$2,$3,0*
0 Add four circle primitives for the rounded corners*
1,1,$1+$1,$2,$3*
1,1,$1+$1,$4,$5*
1,1,$1+$1,$6,$7*
1,1,$1+$1,$8,$9*
0 Add four rect primitives between the rounded corners*
20,1,$1+$1,$2,$3,$4,$5,0*
20,1,$1+$1,$4,$5,$6,$7,0*
20,1,$1+$1,$6,$7,$8,$9,0*
20,1,$1+$1,$8,$9,$2,$3,0*%
G04 Aperture macros list end*
%ADD10RoundRect,0.250000X0.350000X0.450000X-0.350000X0.450000X-0.350000X-0.450000X0.350000X-0.450000X0*%
%ADD11RoundRect,0.250000X-0.350000X-0.450000X0.350000X-0.450000X0.350000X0.450000X-0.350000X0.450000X0*%
%ADD12RoundRect,0.250000X-0.475000X0.337500X-0.475000X-0.337500X0.475000X-0.337500X0.475000X0.337500X0*%
%ADD13RoundRect,0.250000X-0.337500X-0.475000X0.337500X-0.475000X0.337500X0.475000X-0.337500X0.475000X0*%
%ADD14RoundRect,0.250000X0.337500X0.475000X-0.337500X0.475000X-0.337500X-0.475000X0.337500X-0.475000X0*%
%ADD15C,2.500000*%
%ADD16RoundRect,0.125000X0.125000X0.225000X-0.125000X0.225000X-0.125000X-0.225000X0.125000X-0.225000X0*%
%ADD17R,2.700000X3.600000*%
%ADD18RoundRect,0.225000X-0.375000X0.225000X-0.375000X-0.225000X0.375000X-0.225000X0.375000X0.225000X0*%
%ADD19R,1.100000X0.250000*%
%ADD20C,1.500000*%
%ADD21RoundRect,0.250000X-0.250000X-0.250000X0.250000X-0.250000X0.250000X0.250000X-0.250000X0.250000X0*%
%ADD22RoundRect,0.150000X0.512500X0.150000X-0.512500X0.150000X-0.512500X-0.150000X0.512500X-0.150000X0*%
%ADD23RoundRect,0.102000X0.700000X-0.800000X0.700000X0.800000X-0.700000X0.800000X-0.700000X-0.800000X0*%
%ADD24RoundRect,0.250000X0.475000X-0.337500X0.475000X0.337500X-0.475000X0.337500X-0.475000X-0.337500X0*%
%ADD25RoundRect,0.243750X-0.243750X-0.456250X0.243750X-0.456250X0.243750X0.456250X-0.243750X0.456250X0*%
%ADD26RoundRect,0.125000X-0.125000X-0.225000X0.125000X-0.225000X0.125000X0.225000X-0.125000X0.225000X0*%
%ADD27RoundRect,0.250000X-0.450000X0.350000X-0.450000X-0.350000X0.450000X-0.350000X0.450000X0.350000X0*%
%ADD28RoundRect,0.225000X0.375000X-0.225000X0.375000X0.225000X-0.375000X0.225000X-0.375000X-0.225000X0*%
%ADD29C,0.650000*%
%ADD30R,0.600000X1.150000*%
%ADD31R,0.300000X1.150000*%
%ADD32RoundRect,0.102000X-1.090000X-1.000000X1.090000X-1.000000X1.090000X1.000000X-1.090000X1.000000X0*%
%ADD33R,1.500000X0.900000*%
%ADD34R,0.800000X0.800000*%
%ADD35R,1.500000X1.500000*%
%ADD36R,1.700000X1.700000*%
%ADD37O,1.700000X1.700000*%
%ADD38RoundRect,0.250000X0.450000X-0.325000X0.450000X0.325000X-0.450000X0.325000X-0.450000X-0.325000X0*%
%ADD39RoundRect,0.250000X0.450000X-0.350000X0.450000X0.350000X-0.450000X0.350000X-0.450000X-0.350000X0*%
%ADD40RoundRect,0.375000X0.625000X0.375000X-0.625000X0.375000X-0.625000X-0.375000X0.625000X-0.375000X0*%
%ADD41RoundRect,0.500000X0.500000X1.400000X-0.500000X1.400000X-0.500000X-1.400000X0.500000X-1.400000X0*%
G04 APERTURE END LIST*
D10*
%TO.C,R11*%
X93700000Y-150200000D03*
X91700000Y-150200000D03*
%TD*%
D11*
%TO.C,R19*%
X91000000Y-100000000D03*
X93000000Y-100000000D03*
%TD*%
D12*
%TO.C,C10*%
X63000000Y-98162500D03*
X63000000Y-100237500D03*
%TD*%
%TO.C,C12*%
X87800000Y-151725000D03*
X87800000Y-153800000D03*
%TD*%
D13*
%TO.C,C16*%
X91700000Y-121700000D03*
X93775000Y-121700000D03*
%TD*%
D14*
%TO.C,C5*%
X100937500Y-156600000D03*
X98862500Y-156600000D03*
%TD*%
D15*
%TO.C,REF\u002A\u002A*%
X63000000Y-93000000D03*
%TD*%
D16*
%TO.C,D6*%
X77150000Y-164600000D03*
X76350000Y-164600000D03*
%TD*%
D11*
%TO.C,R13*%
X95000000Y-112000000D03*
X97000000Y-112000000D03*
%TD*%
%TO.C,R22*%
X91700000Y-139700000D03*
X93700000Y-139700000D03*
%TD*%
%TO.C,R7*%
X96762500Y-160200000D03*
X98762500Y-160200000D03*
%TD*%
D17*
%TO.C,L1*%
X92050000Y-175325000D03*
X100350000Y-175325000D03*
%TD*%
D13*
%TO.C,C1*%
X74525000Y-134900000D03*
X76600000Y-134900000D03*
%TD*%
D10*
%TO.C,R10*%
X93700000Y-143200000D03*
X91700000Y-143200000D03*
%TD*%
D18*
%TO.C,D1*%
X105200000Y-162925000D03*
X105200000Y-166225000D03*
%TD*%
D10*
%TO.C,R15*%
X82100000Y-163400000D03*
X80100000Y-163400000D03*
%TD*%
D15*
%TO.C,REF\u002A\u002A*%
X63000000Y-178000000D03*
%TD*%
D19*
%TO.C,U1*%
X84200000Y-137600000D03*
X84200000Y-137100000D03*
X84200000Y-136600000D03*
X84200000Y-136100000D03*
X84200000Y-135600000D03*
X79900000Y-135600000D03*
X79900000Y-136100000D03*
X79900000Y-136600000D03*
X79900000Y-137100000D03*
X79900000Y-137600000D03*
%TD*%
D20*
%TO.C,J2*%
X103400000Y-99050000D03*
X98400000Y-102550000D03*
%TD*%
D11*
%TO.C,R4*%
X81000000Y-131500000D03*
X83000000Y-131500000D03*
%TD*%
%TO.C,R16*%
X72900000Y-167300000D03*
X74900000Y-167300000D03*
%TD*%
D10*
%TO.C,R8*%
X93700000Y-129200000D03*
X91700000Y-129200000D03*
%TD*%
D11*
%TO.C,R1*%
X80000000Y-128100000D03*
X82000000Y-128100000D03*
%TD*%
D21*
%TO.C,D2*%
X95900000Y-95000000D03*
X98400000Y-95000000D03*
%TD*%
D11*
%TO.C,R17*%
X76800000Y-112800000D03*
X78800000Y-112800000D03*
%TD*%
%TO.C,R20*%
X91700000Y-125700000D03*
X93700000Y-125700000D03*
%TD*%
D14*
%TO.C,C9*%
X78837500Y-116200000D03*
X76762500Y-116200000D03*
%TD*%
D22*
%TO.C,U3*%
X98600000Y-164725000D03*
X98600000Y-163775000D03*
X98600000Y-162825000D03*
X96325000Y-162825000D03*
X96325000Y-164725000D03*
%TD*%
D10*
%TO.C,R9*%
X93700000Y-136200000D03*
X91700000Y-136200000D03*
%TD*%
D23*
%TO.C,S1*%
X103300000Y-117200000D03*
X107800000Y-117200000D03*
X103300000Y-108800000D03*
X107800000Y-108800000D03*
%TD*%
D24*
%TO.C,C14*%
X84150000Y-159737500D03*
X84150000Y-157662500D03*
%TD*%
%TO.C,C17*%
X88200000Y-132737500D03*
X88200000Y-130662500D03*
%TD*%
D25*
%TO.C,F1*%
X74725000Y-131500000D03*
X76600000Y-131500000D03*
%TD*%
D13*
%TO.C,C3*%
X91925000Y-167925000D03*
X94000000Y-167925000D03*
%TD*%
D24*
%TO.C,C13*%
X87750000Y-159737500D03*
X87750000Y-157662500D03*
%TD*%
D15*
%TO.C,REF\u002A\u002A*%
X106000000Y-178000000D03*
%TD*%
D12*
%TO.C,C11*%
X84200000Y-151725000D03*
X84200000Y-153800000D03*
%TD*%
D14*
%TO.C,C7*%
X87737500Y-163400000D03*
X85662500Y-163400000D03*
%TD*%
D24*
%TO.C,C6*%
X92600000Y-95037500D03*
X92600000Y-92962500D03*
%TD*%
D15*
%TO.C,REF\u002A\u002A*%
X106000000Y-93000000D03*
%TD*%
D14*
%TO.C,C4*%
X100937500Y-153100000D03*
X98862500Y-153100000D03*
%TD*%
D26*
%TO.C,D5*%
X77300000Y-167400000D03*
X78100000Y-167400000D03*
%TD*%
D14*
%TO.C,C19*%
X81000000Y-146700000D03*
X78925000Y-146700000D03*
%TD*%
D11*
%TO.C,R3*%
X86200000Y-140100000D03*
X88200000Y-140100000D03*
%TD*%
D27*
%TO.C,R18*%
X72600000Y-117800000D03*
X72600000Y-119800000D03*
%TD*%
D14*
%TO.C,C15*%
X98100000Y-117200000D03*
X96025000Y-117200000D03*
%TD*%
D28*
%TO.C,D3*%
X84900000Y-170850000D03*
X84900000Y-167550000D03*
%TD*%
D29*
%TO.C,J5*%
X75510000Y-174570000D03*
X81290000Y-174570000D03*
D30*
X75200000Y-173495000D03*
X76000000Y-173495000D03*
D31*
X77150000Y-173495000D03*
X78150000Y-173495000D03*
X78650000Y-173495000D03*
X79650000Y-173495000D03*
D30*
X81600000Y-173495000D03*
X80800000Y-173495000D03*
D31*
X80150000Y-173495000D03*
X79150000Y-173495000D03*
X77650000Y-173495000D03*
X76650000Y-173495000D03*
D32*
X73290000Y-174070000D03*
X83510000Y-174070000D03*
X73290000Y-178000000D03*
X83510000Y-178000000D03*
%TD*%
D33*
%TO.C,U4*%
X70650000Y-91140000D03*
X70650000Y-92410000D03*
X70650000Y-93680000D03*
X70650000Y-94950000D03*
X70650000Y-96220000D03*
X70650000Y-97490000D03*
X70650000Y-98760000D03*
X70650000Y-100030000D03*
X70650000Y-101300000D03*
X70650000Y-102570000D03*
X70650000Y-103840000D03*
X70650000Y-105110000D03*
X70650000Y-106380000D03*
X70650000Y-107650000D03*
X88150000Y-107650000D03*
X88150000Y-106380000D03*
X88150000Y-105110000D03*
X88150000Y-103840000D03*
X88150000Y-102570000D03*
X88150000Y-101300000D03*
X88150000Y-100030000D03*
X88150000Y-98760000D03*
X88150000Y-97490000D03*
X88150000Y-96220000D03*
X88150000Y-94950000D03*
X88150000Y-93680000D03*
X88150000Y-92410000D03*
X88150000Y-91140000D03*
D34*
X76645000Y-95610000D03*
X76645000Y-96860000D03*
X76645000Y-98110000D03*
X77895000Y-95610000D03*
X77895000Y-96860000D03*
X77895000Y-98110000D03*
X79145000Y-95610000D03*
X79145000Y-96860000D03*
X79145000Y-98110000D03*
%TD*%
D35*
%TO.C,J3*%
X98400000Y-146700000D03*
D20*
X103400000Y-143200000D03*
X98400000Y-139700000D03*
X103400000Y-136200000D03*
X98400000Y-132700000D03*
X103400000Y-129200000D03*
X98400000Y-125700000D03*
X103400000Y-122200000D03*
%TD*%
D11*
%TO.C,R21*%
X91700000Y-132700000D03*
X93700000Y-132700000D03*
%TD*%
D14*
%TO.C,C8*%
X78840000Y-119600000D03*
X76765000Y-119600000D03*
%TD*%
D16*
%TO.C,D4*%
X81600000Y-167300000D03*
X80800000Y-167300000D03*
%TD*%
D36*
%TO.C,J1*%
X63000000Y-112260000D03*
D37*
X63000000Y-114800000D03*
X63000000Y-117340000D03*
X63000000Y-119880000D03*
X63000000Y-122420000D03*
X63000000Y-124960000D03*
X63000000Y-127500000D03*
X63000000Y-130040000D03*
X63000000Y-132580000D03*
X63000000Y-135120000D03*
X63000000Y-137660000D03*
X63000000Y-140200000D03*
X63000000Y-142740000D03*
X63000000Y-145280000D03*
%TD*%
D38*
%TO.C,D7*%
X93000000Y-105225000D03*
X93000000Y-103175000D03*
%TD*%
D11*
%TO.C,R12*%
X96200000Y-91800000D03*
X98200000Y-91800000D03*
%TD*%
D39*
%TO.C,R5*%
X91962500Y-164775000D03*
X91962500Y-162775000D03*
%TD*%
D10*
%TO.C,R2*%
X77200000Y-128100000D03*
X75200000Y-128100000D03*
%TD*%
D11*
%TO.C,R6*%
X101962500Y-160200000D03*
X103962500Y-160200000D03*
%TD*%
D40*
%TO.C,U5*%
X80200000Y-159762500D03*
X80200000Y-157462500D03*
D41*
X73900000Y-157462500D03*
D40*
X80200000Y-155162500D03*
%TD*%
D14*
%TO.C,C18*%
X82000000Y-143000000D03*
X79925000Y-143000000D03*
%TD*%
D11*
%TO.C,R23*%
X91700000Y-146700000D03*
X93700000Y-146700000D03*
%TD*%
D13*
%TO.C,C2*%
X74762500Y-141100000D03*
X76837500Y-141100000D03*
%TD*%
M02*
